<svg width="32" height="32" viewBox="0 0 32 32" fill="none" xmlns="http://www.w3.org/2000/svg">
<rect x="-0.5" y="0.5" width="31" height="31" rx="3.5" transform="matrix(-1 0 0 1 31 0)" fill="#EDF5E1" stroke="black"/>
<rect x="-0.25" y="0.25" width="7.5" height="23.5" transform="matrix(-1 0 0 1 27.5 4)" fill="#05386B" stroke="black" stroke-width="0.5"/>
<circle cx="2" cy="2" r="1.95" transform="matrix(-1 0 0 1 26 6)" fill="#C0F9A5" stroke="black" stroke-width="0.1"/>
<rect x="-0.05" y="0.05" width="3.9" height="1.9" transform="matrix(-1 0 0 1 25.9 13)" fill="#379683" stroke="black" stroke-width="0.1"/>
<rect x="-0.05" y="0.05" width="3.9" height="1.9" transform="matrix(-1 0 0 1 25.9 19)" fill="#379683" stroke="black" stroke-width="0.1"/>
<rect x="-0.05" y="0.05" width="3.9" height="1.9" transform="matrix(-1 0 0 1 25.9 16)" fill="#379683" stroke="black" stroke-width="0.1"/>
<rect x="-0.05" y="0.05" width="15.9" height="23.9" transform="matrix(-1 0 0 1 20.9 4)" fill="#EDF5E1" stroke="black" stroke-width="0.1" stroke-dasharray="2 2"/>
<path d="M5.32322 15.1768C5.22559 15.0791 5.22559 14.9209 5.32322 14.8232L6.91421 13.2322C7.01184 13.1346 7.17014 13.1346 7.26777 13.2322C7.3654 13.3299 7.3654 13.4882 7.26777 13.5858L5.85355 15L7.26777 16.4142C7.3654 16.5118 7.3654 16.6701 7.26777 16.7678C7.17014 16.8654 7.01184 16.8654 6.91421 16.7678L5.32322 15.1768ZM5.32322 22.1768C5.22559 22.0791 5.22559 21.9209 5.32322 21.8232L6.91421 20.2322C7.01184 20.1346 7.17014 20.1346 7.26777 20.2322C7.3654 20.3299 7.3654 20.4882 7.26777 20.5858L5.85355 22L7.26777 23.4142C7.3654 23.5118 7.3654 23.6701 7.26777 23.7678C7.17014 23.8654 7.01184 23.8654 6.91421 23.7678L5.32322 22.1768ZM5.32322 8.17678C5.22559 8.07915 5.22559 7.92085 5.32322 7.82322L6.91421 6.23223C7.01184 6.1346 7.17014 6.1346 7.26777 6.23223C7.3654 6.32986 7.3654 6.48816 7.26777 6.58579L5.85355 8L7.26777 9.41421C7.3654 9.51184 7.3654 9.67014 7.26777 9.76777C7.17014 9.8654 7.01184 9.8654 6.91421 9.76777L5.32322 8.17678ZM21 15.25H5.5V14.75H21V15.25ZM21 22.25H5.5V21.75H21V22.25ZM21 8.25H5.5V7.75H21V8.25Z" fill="black"/>
</svg>
