<svg width="32" height="32" viewBox="0 0 32 32" fill="none" xmlns="http://www.w3.org/2000/svg">
<circle cx="16" cy="16" r="15.5" transform="matrix(-1 0 0 1 32 0)" stroke="black"/>
<path d="M7.29289 16.7071C6.90237 16.3166 6.90237 15.6834 7.29289 15.2929L13.6569 8.92893C14.0474 8.53841 14.6805 8.53841 15.0711 8.92893C15.4616 9.31946 15.4616 9.95262 15.0711 10.3431L9.41421 16L15.0711 21.6569C15.4616 22.0474 15.4616 22.6805 15.0711 23.0711C14.6805 23.4616 14.0474 23.4616 13.6569 23.0711L7.29289 16.7071ZM9 17H8V15H9V17Z" fill="black"/>
<path d="M15.2929 16.7071C14.9024 16.3166 14.9024 15.6834 15.2929 15.2929L21.6569 8.92893C22.0474 8.53841 22.6805 8.53841 23.0711 8.92893C23.4616 9.31946 23.4616 9.95262 23.0711 10.3431L17.4142 16L23.0711 21.6569C23.4616 22.0474 23.4616 22.6805 23.0711 23.0711C22.6805 23.4616 22.0474 23.4616 21.6569 23.0711L15.2929 16.7071ZM17 17H16V15H17V17Z" fill="black"/>
</svg>
