<svg width="32" height="32" viewBox="0 0 32 32" fill="none" xmlns="http://www.w3.org/2000/svg">
<rect x="0.5" y="0.5" width="31" height="31" rx="3.5" fill="#EDF5E1" stroke="black"/>
<rect x="4.25" y="4.25" width="7.5" height="23.5" fill="#05386B" stroke="black" stroke-width="0.5"/>
<circle cx="8" cy="8" r="1.95" fill="#C0F9A5" stroke="black" stroke-width="0.1"/>
<rect x="6.05" y="13.05" width="3.9" height="1.9" fill="#379683" stroke="black" stroke-width="0.1"/>
<rect x="6.05" y="19.05" width="3.9" height="1.9" fill="#379683" stroke="black" stroke-width="0.1"/>
<rect x="6.05" y="16.05" width="3.9" height="1.9" fill="#379683" stroke="black" stroke-width="0.1"/>
<rect x="11.05" y="4.05" width="15.9" height="23.9" fill="#EDF5E1" stroke="black" stroke-width="0.1" stroke-dasharray="2 2"/>
<path d="M26.6768 15.1768C26.7744 15.0791 26.7744 14.9209 26.6768 14.8232L25.0858 13.2322C24.9882 13.1346 24.8299 13.1346 24.7322 13.2322C24.6346 13.3299 24.6346 13.4882 24.7322 13.5858L26.1464 15L24.7322 16.4142C24.6346 16.5118 24.6346 16.6701 24.7322 16.7678C24.8299 16.8654 24.9882 16.8654 25.0858 16.7678L26.6768 15.1768ZM26.6768 22.1768C26.7744 22.0791 26.7744 21.9209 26.6768 21.8232L25.0858 20.2322C24.9882 20.1346 24.8299 20.1346 24.7322 20.2322C24.6346 20.3299 24.6346 20.4882 24.7322 20.5858L26.1464 22L24.7322 23.4142C24.6346 23.5118 24.6346 23.6701 24.7322 23.7678C24.8299 23.8654 24.9882 23.8654 25.0858 23.7678L26.6768 22.1768ZM26.6768 8.17678C26.7744 8.07915 26.7744 7.92085 26.6768 7.82322L25.0858 6.23223C24.9882 6.1346 24.8299 6.1346 24.7322 6.23223C24.6346 6.32986 24.6346 6.48816 24.7322 6.58579L26.1464 8L24.7322 9.41421C24.6346 9.51184 24.6346 9.67014 24.7322 9.76777C24.8299 9.8654 24.9882 9.8654 25.0858 9.76777L26.6768 8.17678ZM11 15.25H26.5V14.75H11V15.25ZM11 22.25H26.5V21.75H11V22.25ZM11 8.25H26.5V7.75H11V8.25Z" fill="black"/>
</svg>
