<svg width="32" height="32" viewBox="0 0 32 32" fill="none" xmlns="http://www.w3.org/2000/svg">
<rect x="0.5" y="0.5" width="31" height="31" rx="3.5" fill="#C0F9A5" stroke="black"/>
<line x1="1" y1="21.5" x2="19" y2="21.5" stroke="black"/>
<line x1="18.5713" y1="21.7428" x2="30.5713" y2="1.74275" stroke="black"/>
<path d="M4.29336 28.0653C4.50177 28.0653 4.70937 28.0393 4.91556 28.0114C6.16639 27.8418 7.41814 27.6674 8.65239 27.4C9.87735 27.1346 11.087 26.8476 12.3461 26.8101C13.0499 26.7892 13.7549 26.7884 14.459 26.7706C15.2177 26.7514 15.9691 26.6581 16.7231 26.5764C17.4601 26.4965 18.1948 26.5186 18.935 26.5098C20.0642 26.4964 21.1983 26.4237 22.3247 26.5314C23.3491 26.6293 24.3531 26.6915 25.3728 26.6429C25.6545 26.6295 25.931 26.5978 26.2018 26.5116C26.5671 26.3954 26.4515 25.7415 26.4662 25.447C26.4981 24.8079 26.5463 24.1489 26.459 23.5121C26.3645 22.8232 26.3043 22.1255 26.3043 21.4297C26.3043 20.5722 26.2342 19.6825 26.3619 18.833C26.4777 18.0621 26.7817 17.3596 26.9517 16.6067C27.0021 16.3837 27.0945 16.1781 27.1945 15.9737C27.2924 15.7735 27.3417 15.5567 27.4337 15.3551C27.6141 14.9596 27.8354 14.5803 27.9875 14.1718C28.1836 13.6453 28.1797 13.0788 28.286 12.5354C28.3014 12.4569 28.3573 12.1061 28.2878 12.3681C27.9919 13.4835 27.7631 14.591 27.5685 15.7291C27.3872 16.7901 27.2966 17.8846 27.0416 18.9301C26.8264 19.8125 26.4619 20.6949 26.0274 21.4944C25.7196 22.0608 25.4332 22.6401 25.1696 23.2298C24.7631 24.1391 24.27 24.974 23.695 25.7869C23.1968 26.4913 22.6314 27.2884 21.8788 27.747C21.1707 28.1785 20.3537 28.3646 19.568 28.5976C18.2397 28.9916 16.8091 29.0069 15.4427 29.1767C14.2669 29.3228 13.0735 29.5327 11.8857 29.4824C11.0339 29.4463 10.2692 29.1222 9.49039 28.8098C8.85428 28.5547 8.24033 28.2584 7.61658 27.9754C7.21469 27.7931 6.83962 27.6161 6.46209 27.3856C6.02147 27.1166 5.60426 26.8288 5.1925 26.5188C4.76952 26.2003 4.2511 25.9838 3.87256 25.6053" stroke="black" stroke-width="5" stroke-linecap="round"/>
<path d="M21.7727 23.307C21.2309 23.3891 20.7107 23.5564 20.1848 23.7062C19.2573 23.9704 18.3044 24.0637 17.3453 24.1414C15.4873 24.292 13.6204 24.2426 11.758 24.2619C10.4411 24.2755 9.12421 24.2781 7.8072 24.2781C7.24853 24.2781 6.68987 24.2781 6.1312 24.2781C5.60326 24.2781 5.14903 24.2479 4.66021 24.0335C4.15121 23.8103 3.66973 23.5352 3.16763 23.2998C2.89663 23.1728 2.65157 22.9459 2.35301 22.8862C2.13403 22.8424 1.96402 22.8862 1.75238 22.8862C1.64662 22.8862 1.55528 22.8983 1.46286 22.8394C1.3731 22.7823 1.48145 22.791 1.54558 22.7963C1.94179 22.8286 2.33018 22.884 2.72885 22.8862C3.11558 22.8884 3.50186 22.8929 3.88694 22.852C4.34686 22.8032 4.80743 22.7107 5.26982 22.6956C6.15925 22.6664 7.05397 22.692 7.94387 22.692C8.86724 22.692 9.78545 22.7567 10.7096 22.7567C11.7282 22.7567 12.7392 22.7364 13.7559 22.6992C14.9217 22.6565 16.0907 22.7392 17.2554 22.656C18.1901 22.5892 19.1198 22.5454 20.0571 22.5122C20.4743 22.4973 20.9112 22.5064 21.3267 22.4582C21.5126 22.4366 22.1342 22.5052 22.2258 22.2532C22.3477 21.9179 22.5636 21.5781 22.7365 21.2677C23.1539 20.5187 23.5667 19.78 24.0205 19.0523C24.3336 18.5501 24.5801 17.9771 24.8154 17.4338C25.0783 16.8267 25.4214 16.2436 25.6264 15.6157C25.8725 14.8619 25.9326 14.0701 26.0148 13.2888C26.0154 13.2829 26.0562 13.1558 26.0382 13.1575C25.9231 13.1679 25.7477 13.4085 25.6749 13.4812C25.4127 13.7434 25.2368 14.0202 25.0419 14.3264C24.8522 14.6245 24.6758 14.922 24.4953 15.2255C24.2767 15.593 24.1377 15.9771 23.9414 16.3548C23.3273 17.5366 22.757 18.7409 22.1035 19.901C21.9041 20.2551 21.6998 20.6096 21.467 20.9423C21.3417 21.1212 21.221 21.2776 21.19 21.4943" stroke="black" stroke-width="2" stroke-linecap="round"/>
<path d="M29.0557 29.2629L29.088 29.2953" stroke="black" stroke-width="2" stroke-linecap="round"/>
<path d="M18.8594 30.5576C18.7541 30.5708 19.014 30.6224 19.0465 30.6224C19.1935 30.6224 19.3203 30.583 19.4637 30.5648C19.6886 30.5363 19.9129 30.5429 20.1362 30.4929C20.3737 30.4398 20.638 30.3958 20.8825 30.3958C21.5927 30.3958 22.2944 30.2837 23.0045 30.2645C23.4039 30.2537 23.8007 30.1858 24.2003 30.171C24.592 30.1565 24.981 30.1536 25.3728 30.1297C26.4679 30.0626 27.5736 30.1045 28.6709 30.1045C29.0083 30.1045 29.323 30.0925 29.6545 30.0415C29.8302 30.0145 30.0773 30.0259 29.9656 29.7664C29.7363 29.2334 28.8645 28.9624 28.34 28.9536C27.6754 28.9425 27.0224 29.1239 26.3583 29.1334C25.8508 29.1407 25.3427 29.1334 24.8351 29.1334C24.7813 29.1334 24.9403 29.1102 24.9916 29.0938C25.1922 29.03 25.3729 28.9196 25.5688 28.8439C26.3056 28.5592 27.1445 28.4444 27.7969 27.9717C28.2624 27.6344 28.6973 27.1761 28.7716 26.5906C28.8027 26.345 28.8604 26.1028 28.8867 25.8569C28.949 25.2734 29.175 24.7268 29.2679 24.1486C29.4178 23.2156 29.4118 22.2355 29.4118 21.2929C29.4118 20.6049 29.4441 19.9177 29.4441 19.2303C29.4441 18.1615 29.4441 17.0927 29.4441 16.0239" stroke="black" stroke-width="2" stroke-linecap="round"/>
<path d="M18.989 22.9185C19.0037 22.8205 19.07 22.7411 19.1221 22.6595C19.3029 22.3767 19.4809 22.092 19.6724 21.8161C19.9681 21.39 20.2724 20.9898 20.5032 20.5232C20.679 20.1677 20.8982 19.8269 21.1505 19.5197C21.4866 19.1106 21.8348 18.6437 22.0821 18.1746C22.3489 17.6684 22.7817 17.2661 23.1323 16.8169C23.5066 16.3373 23.8748 15.8533 24.2508 15.3747C24.5795 14.9563 24.9546 14.5707 25.2524 14.1285C25.5938 13.6216 25.9514 13.1375 26.2577 12.6107C26.4374 12.3016 26.6377 12.0042 26.7252 11.6541" stroke="black" stroke-width="2" stroke-linecap="round"/>
<path d="M9.5695 30.6549C9.49086 30.585 9.30222 30.6225 9.20625 30.6225C8.85259 30.6225 8.49892 30.6225 8.14526 30.6225C7.21828 30.6225 6.24451 30.7115 5.32735 30.5739C4.70702 30.4809 4.05932 30.383 3.43376 30.333C3.24264 30.3177 3.06488 30.2565 2.8745 30.2341C2.74127 30.2184 2.682 30.137 2.54541 30.137" stroke="black" stroke-width="2" stroke-linecap="round"/>
<path d="M2.61018 30.4283C2.42571 30.4283 2.45693 30.0763 2.44114 29.95C2.39217 29.5582 2.30283 29.1688 2.24693 28.7775C2.14209 28.0437 1.94308 27.3179 1.86929 26.58C1.81099 25.997 1.77266 25.4009 1.80275 24.8141C1.81814 24.5139 1.86569 24.224 1.86569 23.9221" stroke="black" stroke-width="2" stroke-linecap="round"/>
<path d="M30.4478 13.9199C30.4478 14.5984 30.48 15.2678 30.5197 15.9448C30.5573 16.5864 30.6192 17.291 30.811 17.9085C30.8747 18.1135 30.931 18.3206 30.9585 18.5343C30.9891 18.7729 30.9657 19.0275 30.9657 19.268C30.9657 19.5737 30.998 19.8779 30.998 20.1851C30.998 20.9643 31.0628 21.7413 31.0628 22.5229C31.0628 23.5227 30.8938 24.5218 30.7391 25.5081" stroke="black" stroke-linecap="round"/>
<path d="M30.383 28.4214C30.3761 28.4558 30.3132 28.5601 30.2679 28.5436C30.1147 28.4879 30.099 28.1215 30.0845 28.0078C29.9816 27.2041 29.9622 24.7698 29.9622 25.5801C29.9622 26.3149 29.9556 27.009 29.7356 27.7164C29.6259 28.0695 29.4523 28.4596 29.0325 28.4843C28.7176 28.5028 29.0396 28.0705 29.1044 27.9178C29.369 27.2948 29.6084 26.6585 29.7968 26.0081C29.903 25.6413 29.9814 25.2694 30.0449 24.8931C30.0594 24.8076 30.0576 24.6053 30.1169 24.5263C30.1982 24.4179 30.1208 24.798 30.1061 24.9327C30.0623 25.3331 29.9354 25.7493 29.714 26.089C29.5658 26.3165 29.3494 26.5054 29.153 26.6914C28.9213 26.9108 28.6451 26.9193 28.3438 26.9324" stroke="black" stroke-linecap="round"/>
<path d="M29.3472 8.44946V8.48183" stroke="black" stroke-linecap="round"/>
<path d="M30.0425 13.4059C30.1323 13.3293 30.1626 13.2389 30.1988 13.1277C30.2761 12.8907 30.3577 12.6666 30.4738 12.4452C30.5702 12.2613 30.645 12.068 30.7304 11.8791C30.9797 11.3277 30.9495 10.6349 30.8727 10.0504C30.7544 9.14927 30.5714 8.26332 30.5083 7.35468C30.4858 7.0304 30.4307 6.70492 30.4307 6.37992C30.4307 6.0701 30.4307 5.76028 30.4307 5.45045C30.4307 5.04383 30.3706 4.58546 30.4889 4.19103C30.5436 4.00872 30.6376 3.84646 30.6873 3.66268C30.7271 3.51528 30.7741 3.37432 30.8145 3.2249C30.8275 3.17693 30.9159 2.99589 30.9159 3.00709C30.9159 3.35235 30.8771 3.69602 30.8771 4.04223C30.8771 4.39798 30.9202 4.74496 30.9741 5.09678C31.0135 5.35416 31.0185 5.61531 31.0614 5.87314C31.1029 6.12171 31.11 6.37627 31.11 6.62793C31.11 7.13819 31.0691 7.64809 31.0366 8.15691C31.0193 8.42811 30.9611 8.70285 30.9159 8.97101C30.8877 9.13832 30.8799 9.30301 30.8771 9.47241C30.8737 9.67067 30.8346 9.86377 30.8231 10.0611C30.7935 10.574 30.803 11.1094 30.862 11.6203C30.9309 12.2177 30.7995 12.8426 30.683 13.4254" stroke="black" stroke-linecap="round"/>
<path d="M30.1393 11.8337C30.1393 9.84877 30.0828 7.85829 29.7317 5.9054C29.6929 5.68925 29.6703 5.45009 29.7123 5.23255C29.7476 5.05016 29.8482 4.88737 29.8482 4.69558C29.8482 4.68497 29.807 4.85974 29.7943 4.90045C29.714 5.15612 29.6766 5.42299 29.639 5.68759C29.6039 5.9346 29.5859 6.18933 29.5247 6.43159C29.4507 6.72449 29.3756 7.01499 29.3155 7.31146C29.1867 7.9472 29.1361 8.59962 29.102 9.24696C29.0825 9.61719 29.087 9.98729 29.0632 10.3576C29.0617 10.3811 29.0225 10.7688 29.0643 10.7781C29.1895 10.8059 29.3707 9.54307 29.3813 9.47555C29.5235 8.5689 29.616 7.65286 29.8094 6.75507C29.886 6.39933 29.9538 6.01763 29.9657 5.65416C29.9731 5.43022 30.0248 5.21319 30.0412 4.9921C30.0511 4.85795 30.0423 4.72011 30.0423 4.58559C30.0423 4.53756 30.0314 4.52238 30.0035 4.48747C29.9676 4.44269 29.9046 4.64331 29.9021 4.65029C29.6632 5.31694 29.3833 5.97091 29.1236 6.62999C28.9686 7.02337 28.8081 7.4079 28.6276 7.79022C28.4715 8.1207 28.3115 8.44798 28.2092 8.79948C28.0967 9.18611 28.0107 9.57706 27.9267 9.97048C27.9068 10.0636 27.7961 10.4518 27.9655 10.1754C28.1219 9.92014 28.33 9.67765 28.4507 9.40331C28.4771 9.34347 28.4896 9.29676 28.4896 9.23294C28.4896 9.01657 28.4896 8.8002 28.4896 8.58382C28.4896 8.24253 28.5159 7.91671 28.5629 7.57887C28.5869 7.40655 28.5878 7.22353 28.6341 7.05483C28.6374 7.04247 28.6974 6.89457 28.6987 6.89741C28.7149 6.9324 28.6567 7.03125 28.6448 7.05915C28.5961 7.17374 28.5419 7.28587 28.4896 7.3988C28.2336 7.95079 27.9221 8.47066 27.6453 9.00974C27.5446 9.20579 27.4967 9.41786 27.3919 9.61249C27.2596 9.8581 27.1695 10.1416 27.0048 10.3673C26.7641 10.6971 26.5514 11.0481 26.3061 11.3765C26.0202 11.7594 25.7102 12.1225 25.4133 12.4958C25.2235 12.7343 25.0327 12.9704 24.8482 13.2128C24.6899 13.421 24.4727 13.6177 24.3555 13.8523" stroke="black" stroke-linecap="round"/>
<path d="M23.5986 14.881C23.6652 14.881 23.6938 14.7816 23.7259 14.7343C23.8027 14.6212 23.8872 14.5033 23.9717 14.3958C24.0673 14.2741 24.151 14.1344 24.237 14.0054C24.5436 13.5455 24.8029 13.0554 25.0931 12.5853C25.2128 12.3915 25.3407 12.2046 25.4533 12.0063C25.95 11.1316 26.4128 10.247 27.006 9.43139C27.3424 8.96876 27.5116 8.42203 27.8341 7.952C28.2242 7.38345 28.5445 6.77368 28.8973 6.18579" stroke="black" stroke-linecap="round"/>
<circle cx="14" cy="17" r="4" fill="black"/>
<path d="M5.24645 15.1694C5.19439 15.1759 5.22127 15.4864 5.22818 15.5322C5.27509 15.8429 5.24645 16.1721 5.24645 16.4859C5.24645 16.8162 5.26993 17.1405 5.26993 17.4711C5.26993 17.8753 5.31691 18.282 5.31691 18.6923" stroke="black" stroke-width="0.5" stroke-linecap="round"/>
<path d="M5.24642 18.8801C5.19238 18.8801 5.12178 18.9365 5.08202 18.9741C5.01271 19.0395 4.93831 19.0943 4.87064 19.162C4.6712 19.3614 4.48153 19.5687 4.40614 19.8535C4.31636 20.1927 4.26001 20.5477 4.26001 20.8999" stroke="black" stroke-width="0.5" stroke-linecap="round"/>
<path d="M5.3606 18.8784C5.42752 18.9453 5.52197 18.9761 5.6 19.0263C5.67308 19.0733 5.73553 19.1382 5.81202 19.1812C6.0076 19.2912 6.08666 19.513 6.14921 19.7163C6.26426 20.0902 6.27595 20.471 6.27595 20.864" stroke="black" stroke-width="0.5" stroke-linecap="round"/>
<path d="M5.17741 15.034C5.42759 15.034 5.74484 15.0721 5.93786 14.8791C5.98954 14.8274 6.05309 14.7967 6.09903 14.7383C6.14256 14.6829 6.16433 14.6184 6.2023 14.5615C6.24049 14.5042 6.26026 14.4285 6.28992 14.3659C6.30923 14.3251 6.3129 14.2796 6.33217 14.2391C6.3447 14.2128 6.36843 14.1833 6.37363 14.1546C6.39051 14.0618 6.43075 13.9663 6.43075 13.8714C6.43075 13.7378 6.41956 13.6289 6.38537 13.499C6.32547 13.2714 6.14912 13.1973 5.96915 13.0906C5.85872 13.0252 5.73409 13.0244 5.61396 12.9952C5.46328 12.9585 5.31222 12.9639 5.15707 12.9639C4.9785 12.9639 4.82947 13.0974 4.71269 13.2174C4.58182 13.3519 4.44849 13.5044 4.36767 13.6751C4.33605 13.7418 4.28916 13.8084 4.26987 13.88C4.24445 13.9745 4.24797 14.0833 4.24797 14.1805C4.24797 14.3786 4.34942 14.5716 4.4592 14.7352C4.59913 14.9437 4.87085 15.034 5.107 15.034" stroke="black" stroke-width="0.5" stroke-linecap="round"/>
<path d="M5.40283 16.7098C5.44539 16.672 5.54014 16.6485 5.59216 16.6323C5.73197 16.589 5.83134 16.4902 5.94031 16.3984C6.15276 16.2195 6.34877 16.025 6.55837 15.8429C6.73667 15.6881 6.86544 15.4873 7.04187 15.3305C7.11056 15.2694 7.17695 15.2005 7.23511 15.1294C7.32353 15.0214 7.38736 14.8873 7.49173 14.793C7.60096 14.6944 7.71296 14.5983 7.82814 14.5067C7.90681 14.4441 7.98082 14.3754 8.06128 14.3158C8.1055 14.283 8.1294 14.227 8.17707 14.2031" stroke="black" stroke-width="0.5" stroke-linecap="round"/>
<path d="M5.06491 16.7099C4.81198 16.7099 4.58562 16.5632 4.36314 16.4572C3.99255 16.2807 3.63542 16.0768 3.27018 15.89C3.1146 15.8104 2.98649 15.6862 2.84614 15.5841C2.69045 15.4709 2.51885 15.3427 2.4182 15.1749C2.35617 15.0715 2.27979 14.9747 2.19522 14.8901C2.14071 14.8356 2.10555 14.7645 2.05127 14.7102" stroke="black" stroke-width="0.5" stroke-linecap="round"/>
<path d="M1.44158 26.8066C1.23946 27.2361 1.33749 27.8363 1.33749 28.2986C1.33749 28.7815 1.39835 29.1232 1.54567 29.5651" stroke="black" stroke-linecap="round"/>
<path d="M23.4831 14.7019C23.2351 14.7267 22.9271 15.1109 22.8406 15.3444C22.7758 15.5194 22.661 15.9375 22.7684 16.0987" stroke="black" stroke-linecap="round"/>
<path d="M30.4673 13.6299C30.515 13.2487 30.7721 14.3525 30.7904 14.7362C30.807 15.0864 30.8558 15.4392 30.8084 15.7901C30.7552 16.1835 30.7986 16.5867 30.7416 16.9776C30.7036 17.2385 30.6225 17.491 30.5846 17.7519C30.543 18.0389 30.5251 18.3217 30.4673 18.6073C30.4266 18.8086 30.4348 19.0131 30.4348 19.2173C30.4348 19.7937 30.3698 20.3628 30.3013 20.9354C30.2167 21.6424 30.1784 22.4213 30.2796 23.1299C30.3595 23.6892 30.5648 24.2032 30.5648 24.774C30.5648 25.1355 30.5648 25.497 30.5648 25.8586C30.5648 26.1945 30.645 26.5239 30.6785 26.8584C30.7252 27.3259 30.6947 27.8037 30.6947 28.2733C30.6947 28.4519 30.7246 28.6541 30.6694 28.8255C30.6248 28.9643 30.5585 29.5149 30.3699 29.5149" stroke="black" stroke-linecap="round"/>
<path d="M28.9971 6.59819C28.9991 6.60339 29.0635 6.47951 29.0707 6.46633C29.1194 6.37632 29.1491 6.28362 29.1864 6.18885C29.2578 6.00721 29.3214 5.82131 29.387 5.63713C29.4408 5.48601 29.4784 5.32966 29.5245 5.17602C29.5615 5.05256 29.6188 4.88765 29.7073 4.78934C29.7518 4.73989 29.7716 4.65603 29.8012 4.5968C29.8535 4.49215 29.9082 4.38695 29.9549 4.27969C30.0317 4.10317 30.1412 3.9443 30.2267 3.77327C30.2774 3.67185 30.3502 3.57545 30.395 3.47476C30.4012 3.46073 30.416 3.42706 30.3917 3.45939C30.3308 3.54061 30.2836 3.63296 30.2259 3.71664C29.9672 4.092 29.6596 4.43167 29.3999 4.80632C29.2786 4.98141 29.1447 5.15855 29.0407 5.34429C28.9915 5.4322 28.9564 5.52656 28.9097 5.61529C28.8772 5.67705 28.8807 5.75748 28.8442 5.81834C28.8171 5.86345 28.8195 5.91536 28.8005 5.96477C28.7812 6.01493 28.7495 6.07765 28.7495 6.13222" stroke="black" stroke-linecap="round"/>
</svg>
