<svg width="32" height="32" viewBox="0 0 32 32" fill="none" xmlns="http://www.w3.org/2000/svg">
<rect x="0.5" y="0.5" width="31" height="31" rx="3.5" fill="#C0F9A5" stroke="black"/>
<line x1="1.7" y1="30.6" x2="5.7" y2="27.6" stroke="black"/>
<line x1="5" y1="27.5" x2="12" y2="27.5" stroke="black"/>
<circle cx="10" cy="26" r="1" fill="black"/>
<path d="M7.78204 25.3232C7.78204 25.4266 7.79037 25.5277 7.79037 25.631C7.79037 25.6911 7.80013 25.7762 7.77556 25.8314C7.76628 25.8523 7.77643 25.8841 7.77325 25.9064C7.76892 25.9367 7.76538 25.963 7.76538 25.9943C7.76538 26.0539 7.76538 26.1134 7.76538 26.173" stroke="black" stroke-width="0.1" stroke-linecap="round"/>
<path d="M7.74865 26.2063C7.74667 26.2241 7.71053 26.2476 7.70051 26.2646C7.68679 26.2879 7.67958 26.3146 7.66534 26.3377C7.63759 26.3828 7.62477 26.4411 7.60054 26.4896C7.5886 26.5134 7.5737 26.5586 7.5737 26.5854C7.5737 26.7111 7.51538 26.8291 7.51538 26.9561" stroke="black" stroke-width="0.1" stroke-linecap="round"/>
<path d="M7.76538 26.248C7.80901 26.248 7.87963 26.3169 7.90238 26.3526C7.96023 26.4435 7.95913 26.5637 7.98846 26.6627C8.0176 26.7611 7.99865 26.8866 7.99865 26.9895" stroke="black" stroke-width="0.1" stroke-linecap="round"/>
<path d="M7.74044 25.2982C7.7385 25.3137 7.68593 25.3066 7.67425 25.3066C7.64262 25.3066 7.62291 25.2984 7.60668 25.2686C7.5639 25.1902 7.54883 25.1314 7.54883 25.0437C7.54883 24.9131 7.64272 24.8567 7.76127 24.8567C7.82168 24.8567 7.88733 24.9087 7.91076 24.9613C7.94524 25.0386 7.94038 25.107 7.94038 25.1899C7.94038 25.2354 7.92973 25.2833 7.87373 25.2899C7.85578 25.292 7.75346 25.3222 7.74877 25.3316" stroke="black" stroke-width="0.1" stroke-linecap="round"/>
<path d="M7.80688 25.6731C7.86536 25.6731 7.92383 25.6731 7.9823 25.6731C8.01462 25.6731 8.0444 25.6436 8.07533 25.6333C8.10652 25.6229 8.12807 25.6145 8.15308 25.594C8.1759 25.5753 8.20329 25.5635 8.22713 25.544C8.2559 25.5205 8.2833 25.4951 8.31322 25.4732C8.36599 25.4346 8.39993 25.3516 8.4567 25.3232" stroke="black" stroke-width="0.1" stroke-linecap="round"/>
<path d="M7.77365 25.6983C7.65117 25.6983 7.54226 25.6892 7.43255 25.6275C7.37547 25.5954 7.31208 25.5617 7.26547 25.515C7.24587 25.4954 7.23093 25.4686 7.20715 25.4549C7.18976 25.4448 7.17383 25.4269 7.17383 25.4067" stroke="black" stroke-width="0.1" stroke-linecap="round"/>
<line x1="11.6053" y1="27.693" x2="18.6053" y2="18.693" stroke="black"/>
<line x1="18" y1="18.5" x2="25" y2="18.5" stroke="black"/>
<line x1="24.6159" y1="18.6799" x2="29.6159" y2="12.6799" stroke="black"/>
<line x1="29" y1="12.5" x2="31" y2="12.5" stroke="black"/>
<path d="M28.6519 12.5274C28.6771 12.5223 28.7018 12.4709 28.7174 12.4537C28.7579 12.4087 28.8039 12.3699 28.8504 12.3315C28.904 12.2871 28.9629 12.2497 29.0158 12.2044C29.0515 12.1737 29.0823 12.1385 29.1177 12.1074C29.2223 12.0155 29.322 11.9194 29.4204 11.8211C29.4375 11.8039 29.4535 11.7855 29.4695 11.7673C29.4808 11.7546 29.5123 11.7206 29.4745 11.7454C29.3606 11.8198 29.2572 11.9096 29.157 12.0012C29.0858 12.0665 29.0129 12.1332 28.968 12.2197C28.9643 12.2268 28.925 12.3045 28.9467 12.2666C28.997 12.179 29.0521 12.0943 29.103 12.0071C29.1263 11.9671 29.1485 11.9257 29.1659 11.8827C29.182 11.8427 29.1444 11.8837 29.1341 11.8931C28.9995 12.0162 28.839 12.1268 28.7344 12.2784C28.7126 12.3099 28.7863 12.2219 28.8121 12.1935C28.894 12.1034 28.9943 12.0331 29.0777 11.9452C29.0842 11.9385 29.088 11.9371 29.0872 11.9492C29.0845 11.9912 29.0634 12.0354 29.0443 12.072C28.9951 12.1663 28.929 12.2512 28.8763 12.3436C28.8414 12.4045 28.7947 12.4595 28.7731 12.5274C28.7702 12.5364 28.7575 12.5773 28.7652 12.585C28.7811 12.6009 28.8426 12.5265 28.8507 12.5169C28.9745 12.3701 29.1053 12.2293 29.2324 12.0851C29.284 12.0265 29.3372 11.9698 29.3876 11.9102C29.3905 11.9068 29.4005 11.8984 29.3984 11.9023C29.3789 11.9394 29.3492 11.9751 29.3234 12.0078C29.2265 12.1307 29.1038 12.2265 28.9998 12.3423C28.95 12.3976 28.9063 12.4576 28.8582 12.5143C28.8427 12.5326 28.8214 12.5451 28.8052 12.5631C28.7896 12.5804 28.7791 12.6021 28.7639 12.6191C28.7529 12.6314 28.7213 12.7114 28.738 12.7151C28.7623 12.7205 28.8046 12.658 28.8183 12.6453C28.8878 12.5808 28.9613 12.5223 29.023 12.4497C29.1324 12.3213 29.2265 12.1801 29.3457 12.0602C29.3756 12.0301 29.4086 12.0028 29.4361 11.9704C29.4518 11.9521 29.4633 11.9289 29.4803 11.9118C29.5072 11.8849 29.4795 11.9153 29.4689 11.9272C29.4212 11.9811 29.377 12.0376 29.3306 12.0926C29.2779 12.1552 29.2207 12.2173 29.156 12.2679C29.0861 12.3226 29.018 12.3831 28.9677 12.4563C28.9458 12.4881 28.927 12.5215 28.9054 12.5539C28.8858 12.5833 28.8719 12.6157 28.8523 12.6453C28.8488 12.6506 28.8128 12.6974 28.8288 12.6984C28.8781 12.7013 28.914 12.6162 28.9526 12.5935C28.9899 12.5716 29.0343 12.5183 29.0469 12.4772C29.0642 12.4211 29.1074 12.3515 29.1442 12.3066C29.1917 12.2486 29.2299 12.1793 29.2828 12.1264" stroke="#C0F9A5" stroke-width="0.1" stroke-linecap="round"/>
<path d="M29.2474 12.1853C29.2474 12.2212 29.1869 12.2812 29.1623 12.3059C29.1289 12.3392 29.1058 12.3853 29.0735 12.4176C29.0483 12.4427 29.0262 12.486 29.0057 12.5168C28.968 12.5733 28.9125 12.6192 28.8818 12.6806" stroke="#C0F9A5" stroke-width="0.1" stroke-linecap="round"/>
<path d="M29.0472 12.4683H29.0413" stroke="#C0F9A5" stroke-width="0.1" stroke-linecap="round"/>
<path d="M17.8153 18.643C17.8622 18.643 17.9221 18.5294 17.9461 18.4979C17.9951 18.4337 18.0321 18.3603 18.0762 18.2929C18.1217 18.2232 18.1521 18.1445 18.2042 18.0789C18.2213 18.0573 18.2916 17.9613 18.224 18.0206C18.1356 18.0983 18.0477 18.1771 17.9707 18.2664C17.8974 18.3513 17.8208 18.4337 17.7416 18.5129C17.7026 18.552 17.8059 18.4232 17.8367 18.3774C17.9267 18.2435 18.0352 18.125 18.1333 17.9972C18.164 17.9571 18.2145 17.9057 18.2288 17.8557C18.2295 17.8531 18.2164 17.8739 18.2161 17.8743C18.1844 17.9142 18.1474 17.9506 18.1134 17.9885C18.0224 18.0902 17.9419 18.1923 17.8772 18.3128C17.8543 18.3553 17.832 18.3957 17.8225 18.4432" stroke="#C0F9A5" stroke-width="0.1" stroke-linecap="round"/>
<path d="M17.8367 18.6429C17.8812 18.6429 17.9379 18.6174 17.9651 18.5802C17.9917 18.5438 18.0323 18.5174 18.0543 18.4784C18.0666 18.4564 18.0792 18.4284 18.0951 18.409C18.1124 18.3879 18.1192 18.3588 18.136 18.3364C18.1615 18.3024 18.1806 18.2633 18.2061 18.229C18.271 18.1416 18.3294 18.051 18.4004 17.9682C18.4192 17.9462 18.4387 17.924 18.4559 17.9008C18.4659 17.8872 18.4706 17.8686 18.486 17.8596C18.5014 17.8505 18.4373 17.9372 18.4285 17.9511C18.3526 18.0713 18.2582 18.1867 18.1685 18.2964C18.1505 18.3184 18.1213 18.3368 18.1007 18.3574C18.0745 18.3836 18.0545 18.4124 18.0329 18.4423C17.9821 18.5126 17.9347 18.5948 17.8723 18.6571" stroke="#C0F9A5" stroke-width="0.1" stroke-linecap="round"/>
<path d="M17.8724 18.4503C17.9573 18.3459 17.996 18.2106 18.0683 18.0979C18.0895 18.0649 18.1567 17.9833 18.146 17.9405C18.1449 17.9361 18.1148 17.9694 18.1135 17.9707C18.0897 17.994 18.0626 18.0139 18.0381 18.0365C17.9868 18.0838 17.9385 18.1346 17.8891 18.1839C17.8297 18.2433 17.9041 18.1374 17.9137 18.1221C17.9587 18.0504 18.0029 17.9782 18.0465 17.9057C18.0604 17.8824 17.9746 17.8392 17.962 17.828C17.8462 17.7242 17.8106 17.5096 17.6592 17.4506C17.623 17.4365 17.6023 17.4538 17.5795 17.4819C17.5743 17.4882 17.5203 17.5879 17.5244 17.5889C17.5357 17.5917 17.602 17.5346 17.6148 17.5275C17.6372 17.515 17.6547 17.5169 17.6354 17.5441C17.6177 17.569 17.5917 17.5915 17.5815 17.621C17.5705 17.653 17.632 17.6701 17.6512 17.6797" stroke="#C0F9A5" stroke-width="0.1" stroke-linecap="round"/>
<path d="M18.3005 17.8081C18.344 17.8565 18.3038 17.973 18.2807 18.0222C18.2518 18.0835 18.2222 18.1696 18.1506 18.1934" stroke="#C0F9A5" stroke-width="0.1" stroke-linecap="round"/>
<path d="M17.9438 18.5644C17.9743 18.5614 17.9976 18.5272 18.0152 18.5057C18.0481 18.4655 18.081 18.4254 18.1151 18.3864C18.1676 18.3264 18.2344 18.278 18.2808 18.2132C18.3435 18.1257 18.4236 18.0594 18.4933 17.9797C18.5435 17.9223 18.6108 17.8608 18.6717 17.8152" stroke="#C0F9A5" stroke-width="0.1" stroke-linecap="round"/>
<path d="M17.8923 18.6679C17.8958 18.6952 17.9957 18.5706 18.0018 18.5622C18.0471 18.4993 18.0882 18.4357 18.1346 18.3732C18.1846 18.306 18.2615 18.2339 18.2881 18.1543" stroke="#C0F9A5" stroke-width="0.1" stroke-linecap="round"/>
<path d="M18.2205 18.2805C18.1134 18.3876 18.0382 18.5281 17.9216 18.6262C17.8931 18.6502 17.873 18.687 17.8538 18.7183C17.8385 18.7435 17.8083 18.7679 17.7996 18.7941" stroke="#C0F9A5" stroke-width="0.1" stroke-linecap="round"/>
<path d="M4.83398 27.5292C4.85034 27.5292 4.85669 27.5181 4.86826 27.5075C4.90662 27.4725 4.9488 27.4409 4.99078 27.4104C5.03419 27.3789 5.07692 27.3485 5.11874 27.3151C5.16243 27.2801 5.21092 27.2547 5.25483 27.2211C5.43439 27.0834 5.61239 26.9439 5.79311 26.8083" stroke="#C0F9A5" stroke-width="0.1" stroke-linecap="round"/>
<path d="M5.5975 26.8876C5.5178 26.9337 5.43847 26.9803 5.35857 27.0261C5.29974 27.0598 5.24474 27.0985 5.18752 27.1347C5.10716 27.1855 5.01925 27.2213 4.93331 27.2613C4.9128 27.2708 4.89249 27.2808 4.87188 27.2901C4.85407 27.2982 4.8769 27.2829 4.87799 27.282C4.91132 27.2531 4.94423 27.224 4.97845 27.1961C5.04653 27.1407 5.11636 27.0892 5.19023 27.0417C5.22989 27.0162 5.27394 26.9897 5.30291 26.9514C5.31049 26.9414 5.27771 26.9551 5.26626 26.9603C5.19053 26.9945 5.1186 27.0361 5.04837 27.0804C4.98152 27.1225 4.91434 27.1628 4.84507 27.2009C4.83374 27.2071 4.78911 27.2388 4.77142 27.2352C4.7554 27.2319 4.78816 27.2068 4.79925 27.1948C4.89154 27.0948 5.01246 27.0077 5.13457 26.9484C5.138 26.9467 5.17112 26.9303 5.17055 26.9311C5.13258 26.9797 5.0799 27.0231 5.03207 27.0614C4.99043 27.0947 4.93574 27.1468 4.88444 27.1649C4.835 27.1824 4.97154 27.1057 5.01918 27.0838C5.06288 27.0637 5.12047 27.0349 5.17055 27.0349C5.18119 27.0349 5.17419 27.0618 5.17937 27.0692C5.18173 27.0726 5.24069 27.0643 5.24929 27.0648C5.26013 27.0654 5.29449 27.1011 5.29137 27.1113C5.2817 27.1427 5.23356 27.1653 5.20652 27.1761C5.16839 27.1914 5.13775 27.2182 5.10267 27.2389C5.07743 27.2538 5.05234 27.2652 5.02834 27.282C5.01204 27.2934 4.99495 27.3031 4.97913 27.3153C4.96751 27.3242 4.93056 27.3431 4.94519 27.3431C4.95987 27.3431 5.00729 27.2979 5.0185 27.2895C5.03496 27.2771 5.07323 27.2443 5.0952 27.247C5.11769 27.2499 5.06276 27.2788 5.04497 27.2929C5.03436 27.3012 5.02277 27.3115 5.01069 27.3183C4.98223 27.3343 4.957 27.3575 4.93026 27.3764C4.91471 27.3873 4.89671 27.4064 4.87799 27.4116C4.868 27.4144 4.87043 27.2649 4.87018 27.2538C4.86781 27.1493 4.84609 27.0473 4.84609 26.9426C4.84609 26.8251 4.86007 26.713 4.86917 26.5964C4.87085 26.5749 4.87159 26.5534 4.87629 26.5323C4.8785 26.5223 4.88113 26.5521 4.8841 26.5618C4.90201 26.6206 4.90413 26.6783 4.89428 26.7386C4.8894 26.7685 4.87616 26.7943 4.86441 26.8218C4.83935 26.8805 4.86309 26.8084 4.86747 26.7855C4.87304 26.7563 4.88449 26.6679 4.88274 26.6976C4.88178 26.7139 4.8769 26.7292 4.87663 26.7458C4.8758 26.7968 4.89602 26.8496 4.90718 26.8998" stroke="#C0F9A5" stroke-width="0.1" stroke-linecap="round"/>
<path d="M5.68923 26.9487C5.67557 26.9624 5.66309 26.9774 5.64884 26.9895C5.59051 27.0388 5.52688 27.0817 5.46591 27.1279C5.43451 27.1517 5.4065 27.1775 5.37291 27.1978C5.31134 27.2351 5.25953 27.2892 5.19779 27.3275C5.16289 27.3492 5.12715 27.3703 5.09054 27.3886C5.05815 27.4048 5.03303 27.4357 5.00535 27.4582C4.98127 27.4777 4.95649 27.4971 4.9317 27.5155C4.91318 27.5293 4.88459 27.5591 4.8645 27.5657" stroke="#C0F9A5" stroke-width="0.1" stroke-linecap="round"/>
<path d="M4.8584 27.5535C4.88322 27.5535 4.90976 27.5337 4.92865 27.5192C4.96768 27.4891 5.00226 27.4592 5.04506 27.434C5.09292 27.4058 5.13311 27.3798 5.17539 27.3434C5.19395 27.3274 5.2101 27.3094 5.23105 27.2969" stroke="#C0F9A5" stroke-width="0.1" stroke-linecap="round"/>
<path d="M5.68311 26.9731H5.677" stroke="#C0F9A5" stroke-width="0.1" stroke-linecap="round"/>
<path d="M28.9883 12.6289C29.0335 12.5786 29.0609 12.5147 29.1055 12.4648C29.1239 12.4442 29.1322 12.4164 29.1493 12.3945C29.1768 12.3595 29.2007 12.3221 29.2305 12.2891C29.2548 12.262 29.2752 12.2306 29.2999 12.204C29.3093 12.1938 29.3177 12.1802 29.3242 12.168C29.3325 12.1523 29.3478 12.1427 29.3585 12.1289C29.4005 12.0744 29.4433 12.0176 29.4922 11.9688" stroke="#C0F9A5" stroke-width="0.01" stroke-linecap="round"/>
<path d="M29.0665 12.5117C29.0775 12.5105 29.0943 12.4825 29.0999 12.4743C29.1123 12.4567 29.127 12.4408 29.1399 12.4236C29.1747 12.3771 29.2139 12.3335 29.2462 12.2851C29.2604 12.2639 29.2754 12.2432 29.2892 12.2217C29.2976 12.2086 29.3187 12.1696 29.3187 12.1853C29.3187 12.1924 29.2865 12.223 29.2814 12.2304C29.2692 12.2481 29.2547 12.2636 29.2404 12.2795C29.2067 12.3167 29.178 12.3632 29.1486 12.404C29.1264 12.4349 29.1057 12.4663 29.0841 12.4978C29.0726 12.5146 29.0615 12.5312 29.0487 12.547C29.0295 12.5709 29.0689 12.5022 29.0717 12.4967C29.0861 12.4686 29.1002 12.4409 29.1156 12.4134C29.1548 12.343 29.2063 12.279 29.2423 12.207" stroke="#C0F9A5" stroke-width="0.01" stroke-linecap="round"/>
<path d="M29.0743 12.5312C29.0705 12.5324 29.0354 12.577 29.0565 12.5547C29.0826 12.5271 29.1025 12.4961 29.1264 12.4666C29.1909 12.3871 29.2586 12.3091 29.3222 12.2296C29.3692 12.1708 29.4144 12.1108 29.4602 12.0508C29.4814 12.023 29.506 11.9963 29.5305 11.9718C29.5421 11.9602 29.5734 11.9363 29.5782 11.9219" stroke="#C0F9A5" stroke-width="0.01" stroke-linecap="round"/>
<path d="M29.4922 11.9961C29.4896 12.0164 29.4471 12.0322 29.4375 12.049C29.4278 12.066 29.4116 12.0797 29.4023 12.0959C29.3897 12.118 29.3652 12.1354 29.3457 12.1506C29.3373 12.1571 29.3293 12.169 29.3242 12.178C29.3188 12.1873 29.299 12.2367 29.3125 12.2131C29.324 12.1929 29.3401 12.1735 29.3524 12.1523C29.3592 12.1407 29.4538 12.055 29.4444 12.0477C29.4411 12.0451 29.4058 12.0899 29.4023 12.0946C29.3899 12.1116 29.4013 12.0861 29.4043 12.0803C29.412 12.0654 29.4264 12.0542 29.4366 12.0408C29.4447 12.0303 29.4552 12.0148 29.4687 12.0156C29.4838 12.0165 29.4586 12.0411 29.4531 12.043" stroke="#C0F9A5" stroke-width="0.01" stroke-linecap="round"/>
<path d="M29.4688 12.0039C29.4688 12.0189 29.4633 12.0265 29.457 12.0391" stroke="#C0F9A5" stroke-width="0.01" stroke-linecap="round"/>
<path d="M29.4805 11.9961C29.4708 12.0058 29.4701 12.0189 29.4648 12.0312" stroke="#C0F9A5" stroke-width="0.01" stroke-linecap="round"/>
<path d="M29.4414 12.0547C29.4414 12.0999 29.3778 12.1255 29.3575 12.1621C29.3391 12.1951 29.3016 12.2111 29.2832 12.2441C29.2739 12.2609 29.2547 12.2855 29.2498 12.3025C29.2479 12.3093 29.2333 12.3237 29.2283 12.3301C29.2205 12.3401 29.213 12.3513 29.204 12.3602C29.1847 12.3796 29.1684 12.4037 29.1493 12.4227C29.1348 12.4373 29.1273 12.4589 29.1142 12.4735C29.1054 12.4833 29.081 12.524 29.0821 12.5234" stroke="#C0F9A5" stroke-width="0.01" stroke-linecap="round"/>
<path d="M29.3829 12.1094C29.3829 12.1221 29.3696 12.1328 29.3633 12.1445C29.3533 12.1635 29.3793 12.0935 29.3748 12.1267C29.3742 12.1314 29.3756 12.1543 29.3731 12.1562C29.3654 12.1624 29.3596 12.1735 29.3525 12.1806C29.3187 12.2144 29.2781 12.2529 29.254 12.2951C29.228 12.3405 29.1766 12.3713 29.1504 12.4178C29.1444 12.4285 29.1308 12.437 29.1229 12.4473C29.115 12.4573 29.1111 12.4702 29.1038 12.4813C29.0904 12.5018 29.0451 12.5594 29.0587 12.5391" stroke="#C0F9A5" stroke-width="0.01" stroke-linecap="round"/>
<path d="M29.2772 12.2656C29.2621 12.2807 29.2488 12.2979 29.236 12.3145C29.2291 12.3233 29.2213 12.3306 29.2147 12.3398C29.2048 12.3537 29.2035 12.3603 29.2186 12.3435C29.2346 12.3258 29.2498 12.3071 29.2664 12.2899C29.2757 12.2803 29.2783 12.26 29.289 12.253C29.3076 12.2409 29.3174 12.2124 29.3358 12.2031" stroke="#C0F9A5" stroke-width="0.01" stroke-linecap="round"/>
<path d="M29.3164 12.2188C29.309 12.2197 29.2933 12.2463 29.2899 12.2539C29.2839 12.2674 29.2835 12.2704 29.2695 12.2773" stroke="#C0F9A5" stroke-width="0.01" stroke-linecap="round"/>
<path d="M29.4141 12.0742C29.4053 12.0839 29.3997 12.0955 29.388 12.1024C29.3824 12.1058 29.3626 12.1133 29.3633 12.1133" stroke="#C0F9A5" stroke-width="0.01" stroke-linecap="round"/>
<path d="M29.4688 12.0039C29.4688 12.0204 29.46 12.0315 29.4492 12.043C29.437 12.0559 29.4366 12.0643 29.4297 12.0781" stroke="#C0F9A5" stroke-width="0.01" stroke-linecap="round"/>
<path d="M29.4882 11.9883C29.4897 12.0002 29.4937 12.0195 29.4725 12.0195C29.4523 12.0195 29.4895 12.0013 29.4921 11.9961" stroke="#C0F9A5" stroke-width="0.01" stroke-linecap="round"/>
<path d="M29.4492 12.0039C29.4492 12.0145 29.4543 12.0541 29.4453 12.0586" stroke="#C0F9A5" stroke-width="0.01" stroke-linecap="round"/>
<path d="M29.4219 12.082C29.4219 12.1045 29.3997 12.1052 29.3889 12.1191C29.3783 12.1328 29.3742 12.1461 29.3672 12.1602" stroke="#C0F9A5" stroke-width="0.01" stroke-linecap="round"/>
<path d="M29.3828 12.1445H29.3789" stroke="#C0F9A5" stroke-width="0.01" stroke-linecap="round"/>
<path d="M29.3867 12.1094C29.3867 12.1192 29.3828 12.1269 29.3828 12.1367" stroke="#C0F9A5" stroke-width="0.01" stroke-linecap="round"/>
<path d="M29.375 12.1094C29.375 12.1184 29.3745 12.1277 29.375 12.1367C29.3756 12.1478 29.3884 12.1458 29.3906 12.1367" stroke="#C0F9A5" stroke-width="0.01" stroke-linecap="round"/>
<path d="M29 12.6094C28.9897 12.6107 28.9631 12.6511 28.957 12.6602" stroke="#C0F9A5" stroke-width="0.01" stroke-linecap="round"/>
<path d="M29.0352 12.5742C29.025 12.5755 29.001 12.6026 28.9961 12.6111C28.9822 12.6355 28.9659 12.6591 28.9453 12.6797" stroke="#C0F9A5" stroke-width="0.01" stroke-linecap="round"/>
<path d="M29.0234 12.5859C29.0234 12.6058 29.0015 12.6181 28.9883 12.6328C28.9743 12.6484 28.9572 12.6887 28.9375 12.6953" stroke="#C0F9A5" stroke-width="0.01" stroke-linecap="round"/>
<path d="M7.75391 25.2188C7.74004 25.2188 7.70521 25.2268 7.69922 25.2148" stroke="#C0F9A5" stroke-width="0.1" stroke-linecap="round"/>
<path d="M2.39355 31.0253C2.51531 31.0061 2.68713 30.853 2.76918 30.7667C2.87959 30.6505 3.02392 30.5732 3.13903 30.4618C3.49576 30.1166 3.91186 29.8484 4.29047 29.53C4.65819 29.2208 5.02456 28.906 5.38267 28.5837C5.58531 28.4013 5.74914 28.1355 6.03424 28.0925C6.42102 28.0341 6.8256 28.1354 7.21313 28.0723C7.41302 28.0397 7.60552 27.9807 7.80835 27.9509C8.20625 27.8924 8.60937 27.8437 9.00313 27.7617C9.42496 27.6738 9.89552 27.6706 10.325 27.6706C10.6178 27.6706 10.9106 27.6706 11.2034 27.6706C11.4814 27.6706 11.7611 27.6446 12.0414 27.6446C12.2543 27.6446 12.7163 27.7006 12.8475 27.5132C12.9421 27.3781 12.9998 27.2324 13.07 27.0855C13.2188 26.7745 13.4688 26.5229 13.6797 26.2534C13.7999 26.0997 13.951 25.9887 14.0553 25.8185C14.1407 25.6791 14.2761 25.5219 14.3876 25.4024C14.6828 25.0861 14.9509 24.7285 15.2197 24.3883C15.4274 24.1254 15.674 23.8939 15.8756 23.6269C16.2697 23.105 16.6337 22.563 17.0242 22.0377C17.4627 21.4479 17.9222 20.868 18.3432 20.265C18.5175 20.0155 18.6516 19.7402 18.8286 19.4936C18.9539 19.319 19.0589 19.1273 19.2072 18.9706C19.2591 18.9157 19.2813 18.8367 19.3487 18.803" stroke="black" stroke-linecap="round"/>
<path d="M19.6484 19.3249C19.9213 19.34 20.228 19.4129 20.5007 19.3536C20.7203 19.3059 20.9601 19.291 21.1827 19.2568C21.9752 19.1351 22.7655 19.0376 23.5683 19.0376C24.0159 19.0376 24.4635 19.0376 24.9111 19.0376C24.9996 19.0376 25.1137 19.0579 25.1983 19.0333C25.2654 19.0139 25.3343 18.9647 25.3952 18.9312C25.6102 18.8129 25.8137 18.6502 26.0027 18.4907C26.2538 18.2788 26.4733 18.0151 26.6475 17.7363C26.7021 17.649 26.7791 17.5823 26.8316 17.4937C26.8782 17.4152 26.9252 17.3385 26.9795 17.2649C27.1619 17.0178 27.2955 16.7398 27.4434 16.4712" stroke="black" stroke-linecap="round"/>
<path d="M28.7458 14.69C28.8049 14.631 28.8793 14.5948 28.9374 14.5368C28.9888 14.4854 29.0972 14.4468 29.1289 14.3835" stroke="black" stroke-linecap="round"/>
<path d="M28.8991 14.7283C28.7099 15.0858 28.4585 15.4062 28.249 15.7519C28.0494 16.0812 27.7908 16.3813 27.5776 16.701" stroke="black" stroke-linecap="round"/>
<path d="M27.6541 16.2795C27.6413 16.2779 27.6924 15.8929 27.6924 15.839C27.6924 15.7507 27.5583 15.8164 27.5583 15.8965" stroke="black" stroke-linecap="round"/>
<path d="M27.8267 15.9157C27.953 15.8947 28.0656 15.7165 28.1427 15.6274C28.2925 15.4542 28.454 15.2775 28.5842 15.089C28.6861 14.9415 28.7756 14.7861 28.8811 14.641C29.0149 14.457 29.173 14.288 29.3131 14.1079C29.3862 14.014 29.4458 13.8935 29.5408 13.8196C29.605 13.7696 29.6544 13.6712 29.7323 13.6366C29.8184 13.5983 29.9422 13.4788 30.0185 13.4163C30.0776 13.368 30.1683 13.2727 30.2484 13.2727C30.3189 13.2727 30.3895 13.2727 30.4601 13.2727C30.5512 13.2727 30.7761 13.2162 30.7761 13.3419C30.7761 14.0863 30.7696 14.8231 30.8442 15.5646C30.8997 16.1162 30.9485 16.6801 30.9485 17.2351C30.9485 17.715 30.8733 18.1715 30.7953 18.6438C30.7258 19.0647 30.6835 19.488 30.6804 19.9143C30.6767 20.4117 30.6275 20.9078 30.6229 21.4039C30.6211 21.6004 30.6229 21.7969 30.6229 21.9934C30.6229 22.1996 30.6765 22.3864 30.6952 22.5892C30.7276 22.939 30.6995 23.302 30.6995 23.6532" stroke="black" stroke-linecap="round"/>
<path d="M2.90942 31.1225C2.9598 31.1225 3.01476 31.1041 3.06371 31.0927C3.28425 31.0412 3.5048 30.9979 3.72659 30.9512C4.30794 30.8288 4.90221 30.8187 5.49179 30.7873C6.85084 30.715 8.21798 30.8749 9.57443 30.7586C9.96337 30.7252 10.3489 30.7021 10.7353 30.6437C11.2154 30.571 11.7004 30.5734 12.1845 30.5479C13.0192 30.504 13.8633 30.4521 14.6987 30.4521C14.8523 30.4521 15.0045 30.4713 15.1584 30.4713C15.6017 30.4713 16.0451 30.4713 16.4884 30.4713" stroke="black" stroke-linecap="round"/>
<path d="M3.38818 30.7779C3.3942 30.7298 3.58201 30.6325 3.62227 30.6055C3.865 30.4427 4.09562 30.257 4.31813 30.0672C4.77104 29.6807 5.27814 29.3621 5.7503 28.9999C6.02036 28.7928 6.31247 28.5315 6.62067 28.3881C6.66673 28.3667 6.61165 28.4458 6.61109 28.4467C6.50502 28.6034 6.40565 28.7646 6.29933 28.9212C6.01327 29.3426 5.68657 29.7476 5.34172 30.1225C5.27118 30.1992 5.135 30.3149 5.1236 30.4289C5.12277 30.4372 5.21653 30.3611 5.2268 30.3523C5.37464 30.2262 5.53713 30.1185 5.69497 30.0054C5.95722 29.8177 6.21739 29.6306 6.45681 29.4138C6.68921 29.2035 6.91042 28.9789 7.15268 28.7797C7.32166 28.6407 7.49785 28.4752 7.69532 28.3764C7.86274 28.2927 7.59727 28.657 7.58254 28.6754C7.31835 29.0051 7.00961 29.3145 6.78878 29.6767C6.75215 29.7367 6.72068 29.7995 6.68238 29.8586C6.66647 29.8832 6.64869 29.9073 6.63663 29.9341C6.58483 30.0493 6.8716 29.8403 6.98243 29.7799C7.67813 29.4008 8.35512 28.994 9.03811 28.5956C9.11325 28.5518 9.18921 28.5097 9.26368 28.4647C9.30375 28.4405 9.33085 28.417 9.26368 28.4456C9.02025 28.5493 8.78667 28.6781 8.55505 28.8052C8.41435 28.8825 8.26679 28.9776 8.10071 28.9776C8.02659 28.9776 7.80421 28.9776 7.87833 28.9776C8.02654 28.9776 8.18874 28.9562 8.3348 28.9787C8.36292 28.983 8.34352 29.0427 8.34012 29.0563C8.29055 29.2546 8.14092 29.3969 8.01027 29.5458C7.79189 29.7946 7.56351 30.1097 7.43358 30.4183C7.41224 30.469 7.50236 30.4142 7.51019 30.4098C7.69651 30.3052 7.85791 30.1616 8.0273 30.0331C8.69136 29.5292 9.38723 29.0767 10.1532 28.7456C10.5249 28.585 10.9127 28.4752 11.28 28.3009C11.4387 28.2255 11.5893 28.1353 11.7471 28.0583C11.9576 27.9556 12.1792 27.903 12.4025 27.837C12.5034 27.8072 12.6033 27.7749 12.7037 27.7433C12.7373 27.7328 12.8118 27.7299 12.8377 27.704C12.8792 27.6625 12.7241 27.7333 12.6685 27.7519C12.4496 27.8248 12.2315 27.9016 12.0088 27.9625C11.5552 28.0867 11.1147 28.2452 10.6682 28.3924C10.3729 28.4897 10.0654 28.5387 9.75952 28.5903C9.48022 28.6375 9.1966 28.6557 8.91682 28.6999C8.86906 28.7074 8.67771 28.7216 8.65507 28.7669" stroke="black" stroke-linecap="round"/>
<path d="M6.35695 30.3757C6.26885 30.3052 6.08008 30.3374 5.97391 30.3374C5.90634 30.3374 5.70636 30.3352 5.77174 30.3523C5.89672 30.3849 6.21482 30.3407 6.31439 30.3374C6.53962 30.3299 6.76564 30.3182 6.99111 30.3182C7.23514 30.3182 7.47891 30.3214 7.72209 30.297C8.02454 30.2665 8.31845 30.1851 8.61905 30.1416C9.00896 30.0852 9.39398 30.0316 9.76925 29.9065C10.074 29.8049 10.3691 29.6642 10.662 29.533C11.5081 29.1539 12.3687 28.7251 13.0783 28.1168C13.2887 27.9365 13.4755 27.7337 13.6923 27.5603" stroke="black" stroke-linecap="round"/>
<path d="M29.7823 15.7064C29.8702 15.6966 29.9042 15.2291 29.9096 15.1453C29.9222 14.9504 29.8968 14.7268 29.9509 14.5375C30.001 14.362 29.9977 14.0551 30.2018 13.971C30.2793 13.9391 30.3243 14.3424 30.3291 14.3726C30.401 14.8218 30.3632 15.2922 30.3632 15.7458C30.3632 16.1665 30.4042 16.6058 30.3381 17.0223C30.2248 17.7363 30.1696 18.474 30.1696 19.1986C30.1696 19.4708 30.2018 19.3455 30.2018 19.152C30.2018 18.5712 30.2018 17.9903 30.2018 17.4095C30.2018 17.0076 30.1789 16.5681 30.0244 16.1904C29.9512 16.0116 29.8528 15.8451 29.7752 15.667C29.6491 15.3774 29.5565 15.0245 29.5565 14.7061C29.5565 14.5157 29.4371 14.582 29.3628 14.681C29.2293 14.8591 29.266 15.0906 29.266 15.3012C29.266 15.4604 29.4933 15.6588 29.5887 15.7781C29.6165 15.8128 29.6759 15.9287 29.7322 15.9287C29.7802 15.9287 29.7383 16.227 29.7339 16.2729C29.7147 16.4771 29.7178 16.6811 29.7178 16.886C29.7178 16.9813 29.7059 17.0316 29.6461 16.9183C29.5766 16.7867 29.5048 16.6564 29.4274 16.5293C29.3604 16.4193 29.2494 16.3463 29.1872 16.2388C29.0905 16.0719 28.9367 15.9464 28.8465 15.7709C28.838 15.7544 28.7739 15.5963 28.7946 15.6096C28.9541 15.7121 29.0933 15.9331 29.2123 16.0739C29.3585 16.2471 29.4926 16.4288 29.6353 16.6046C29.8642 16.8862 30.0332 17.053 30.1624 17.4023C30.2731 17.7017 30.2975 18.117 30.1301 18.3847C30.0605 18.4961 29.6983 17.8163 29.6604 17.7447C29.5617 17.5583 29.4992 17.3472 29.4202 17.1513C29.2464 16.7204 28.9234 16.3052 28.4019 16.2872C28.2283 16.2813 28.147 16.4998 28.0739 16.6279C27.9583 16.8301 27.8345 17.0291 27.7028 17.2231C27.6015 17.3721 27.4522 17.4823 27.3155 17.5941C27.2467 17.6505 27.1314 17.7218 27.104 17.8039" stroke="black" stroke-linecap="round"/>
<path d="M24.6838 22.2572C24.436 22.3398 24.1825 22.5794 23.9702 22.7233C23.3292 23.1577 22.7049 23.6158 22.0699 24.0589C20.9697 24.8267 19.9123 25.658 18.7426 26.3159C18.2221 26.6088 17.7502 26.9654 17.2242 27.2482C16.5338 27.6192 15.8852 28.0009 15.1572 28.2987C14.926 28.3933 14.6921 28.4682 14.4705 28.5838C14.4157 28.6124 14.1723 28.7509 14.2034 28.729C14.8316 28.2869 15.2556 27.4701 15.5982 26.8107C15.8664 26.2945 16.1867 25.8087 16.5734 25.373C16.7652 25.1569 16.9482 24.9245 17.1561 24.724C17.4742 24.417 17.85 24.1594 18.1976 23.8868C18.8304 23.3907 19.5076 22.9545 20.1589 22.4831C21.0178 21.8614 21.9234 21.4548 22.9538 21.1923C23.5869 21.031 24.2167 20.8666 24.8559 20.7298C25.5546 20.5802 26.2653 20.4906 26.9462 20.2637C27.2026 20.1782 27.4632 20.0903 27.7027 19.9643C27.8458 19.889 28.0854 19.8099 28.185 19.6721C28.2758 19.5462 28.3308 19.4379 28.3947 19.3064C28.4226 19.2489 28.4593 19.18 28.4593 19.1145C28.4593 19.0428 28.4604 19.258 28.4575 19.3297C28.4452 19.6248 28.3535 19.9086 28.2907 20.1955C28.1705 20.7449 28.1084 21.2982 28.0147 21.852C27.8537 22.8029 27.7671 23.731 27.6991 24.6917C27.6611 25.229 27.5337 25.7577 27.4661 26.2908C27.4169 26.6788 27.3686 27.0681 27.3173 27.4561C27.268 27.8287 27.2528 28.2324 27.0788 28.5748C27.0553 28.6211 26.9879 28.7068 26.9426 28.7361C26.7397 28.8674 26.5786 29.0381 26.3635 29.161C26.0709 29.3282 25.6671 29.2596 25.3435 29.2596C24.0592 29.2596 22.7609 29.263 21.4819 29.3887C20.822 29.4535 20.1433 29.3472 19.4884 29.4389C19.1557 29.4855 18.8617 29.5403 18.5383 29.6289C18.4597 29.6504 18.3857 29.6834 18.3088 29.7096C18.009 29.8116 18.357 29.4876 18.402 29.4443C19.5939 28.2959 20.9993 27.3732 22.2976 26.3536C22.7439 26.0031 23.1339 25.544 23.626 25.2582C23.8283 25.1408 24.0596 25.0599 24.2678 24.9499C24.5934 24.7778 24.9147 24.5863 25.2449 24.4246C25.4044 24.3465 25.7464 24.1381 25.8454 24.3547C26.0519 24.8064 25.6156 25.4347 25.4295 25.8068C25.2021 26.2616 24.9742 26.7454 24.9742 27.2589" stroke="black" stroke-width="4" stroke-linecap="round"/>
<path d="M22.9736 23.6125C22.61 23.4307 22.3246 23.1034 21.9769 22.8882C21.0987 22.345 20.2221 21.8051 19.3666 21.2246C19.3419 21.2078 19.1159 21.063 19.173 21.0059C19.1986 20.9803 19.4226 21.0584 19.4563 21.0632" stroke="black" stroke-width="4" stroke-linecap="round"/>
<path d="M28.3626 20.7728C28.4632 20.5884 28.491 20.3761 28.5401 20.174C28.595 19.9485 28.7046 19.7404 28.7499 19.5143C28.8215 19.1561 28.8789 18.7697 28.8789 18.4028C28.8789 18.083 28.786 17.8243 28.7033 17.5172C28.699 17.5013 28.6468 17.3004 28.6333 17.3289C28.4345 17.7487 28.5897 18.4087 28.6531 18.842C28.7175 19.2822 28.8216 19.6975 28.9686 20.1166C29.0998 20.4908 29.1446 20.8843 29.2662 21.2604C29.5176 22.0383 29.8107 22.8086 30.0388 23.5928C30.3154 24.5433 30.1281 25.5777 30.0478 26.5418C29.9866 27.2762 29.9194 28.0124 29.8219 28.7433C29.7736 29.1058 29.6637 29.4864 29.6875 29.8548C29.6983 30.0232 29.744 29.961 29.5172 29.9874C29.2657 30.0168 29.02 30.0516 28.7714 30.0968C28.5549 30.1361 28.3068 30.1377 28.1045 30.2277C28.045 30.2541 27.9781 30.2613 27.9198 30.2904C27.8739 30.3134 28.0226 30.2922 28.074 30.2922C28.1899 30.2922 28.3059 30.2939 28.4218 30.2904C28.8654 30.2772 29.3251 30.2377 29.7502 30.0986C29.8453 30.0675 30.1092 30.0018 29.8793 30.0018" stroke="black" stroke-width="2" stroke-linecap="round"/>
<path d="M19.4884 29.8403C18.5102 29.8403 17.5319 29.8403 16.5537 29.8403C15.8252 29.8403 15.0968 29.8403 14.3683 29.8403C13.7618 29.8403 13.1597 29.9018 12.5541 29.9049C12.1753 29.9068 11.7941 29.8878 11.4175 29.9371C11.239 29.9605 11.0565 30.0017 10.8761 30.0017C10.6986 30.0017 10.5308 30.0662 10.3562 30.0662" stroke="black" stroke-width="2" stroke-linecap="round"/>
<path d="M8.46509 24.1817C8.65841 24.1602 8.8672 23.6691 8.99799 23.5304C9.27483 23.2368 9.48149 22.8693 9.76774 22.583" stroke="black" stroke-width="0.1" stroke-linecap="round"/>
<path d="M7.5769 23.6487C7.70136 23.6332 7.63612 22.4794 7.63612 22.2869" stroke="black" stroke-width="0.1" stroke-linecap="round"/>
<path d="M6.80716 24.1817C6.55276 24.1658 6.39949 23.8263 6.18873 23.7113C5.98743 23.6015 5.77568 23.4234 5.56372 23.3528" stroke="black" stroke-width="0.1" stroke-linecap="round"/>
<path d="M17.1157 30.9219C16.8727 30.9219 16.6302 30.9621 16.3877 30.9712C15.9563 30.9875 15.5252 30.9889 15.0929 30.9889C14.3429 30.9889 13.593 30.9889 12.843 30.9889" stroke="black" stroke-linecap="round"/>
<path d="M30.4866 26.666C30.5262 26.666 30.5427 26.7026 30.5499 26.7405C30.5833 26.9177 30.6239 27.0899 30.6774 27.2627C30.7242 27.4139 30.7322 27.5972 30.7379 27.7551C30.7447 27.9426 30.7547 28.1288 30.7547 28.3174C30.7547 28.5829 30.7839 28.8724 30.7342 29.1347C30.6856 29.3911 30.3108 29.4071 30.1077 29.4567C29.8619 29.5168 29.6336 29.6278 29.4012 29.7248C28.9877 29.8974 28.5766 30.0673 28.1762 30.2684C27.9584 30.3779 27.7912 30.4896 27.6083 30.6464C27.5209 30.7213 27.431 30.8147 27.3365 30.8791C27.2891 30.9114 27.2247 30.9353 27.1867 30.9796C27.1241 31.0527 27.0993 30.9112 27.0852 30.8716" stroke="black" stroke-linecap="round"/>
</svg>
