<svg width="32" height="32" viewBox="0 0 32 32" fill="none" xmlns="http://www.w3.org/2000/svg">
<path d="M4 0.5H28C29.933 0.5 31.5 2.067 31.5 4V28C31.5 29.933 29.933 31.5 28 31.5H4C2.067 31.5 0.5 29.933 0.5 28V4C0.5 2.067 2.067 0.5 4 0.5Z" fill="#FFC65C" stroke="black"/>
<line x1="1.64645" y1="30.6464" x2="30.6464" y2="1.64645" stroke="black"/>
<path d="M17.4475 24.7751C17.2365 24.8879 17.0152 24.9703 16.7902 25.049" stroke="black" stroke-linecap="round"/>
<path d="M2.82178 30.883C3.27708 30.883 3.72011 30.7432 4.17602 30.7126C4.89368 30.6644 5.59422 30.5817 6.31542 30.5817C7.20071 30.5817 8.08628 30.6091 8.97217 30.6091C9.49624 30.6091 10.024 30.5913 10.547 30.6228C11.7021 30.6924 12.8534 30.6913 14.0103 30.6913C15.2661 30.6913 16.5449 30.758 17.7976 30.6578C18.2922 30.6182 18.7872 30.5366 19.2827 30.4935C19.8318 30.4457 20.3903 30.4722 20.9412 30.4722C21.574 30.4722 22.2048 30.4494 22.8372 30.4448C23.5722 30.4394 24.2943 30.2958 25.0253 30.2515C25.3568 30.2315 25.6832 30.1709 26.0158 30.1709C26.3602 30.1709 26.7046 30.1709 27.049 30.1709C27.6606 30.1709 28.2697 30.2257 28.8795 30.2257C29.2836 30.2257 29.6834 30.2328 30.0862 30.2515C30.2637 30.2598 30.4456 30.2805 30.6218 30.2805" stroke="black" stroke-linecap="round"/>
<path d="M3.05347 29.9479C3.16159 29.9359 3.33438 29.7512 3.41803 29.6827C3.49892 29.6166 3.5841 29.5645 3.6574 29.4912C3.83965 29.309 4.06155 29.1632 4.25396 28.9794C4.62817 28.6218 5.06148 28.3007 5.46551 27.974C5.64404 27.8297 5.84295 27.6238 5.93687 27.4125C6.21583 26.7848 6.75533 26.3933 7.22943 25.9192C7.89429 25.2543 8.61899 24.6517 9.21798 23.9196C9.64219 23.4011 9.97153 22.7542 10.4774 22.3085C11.2899 21.5927 12.0907 20.8775 12.8563 20.1119C13.4017 19.5665 13.9464 19.0218 14.4913 18.4769C14.773 18.1952 15.0808 17.9226 15.318 17.6023C15.4632 17.4064 15.6287 17.227 15.7728 17.0296C15.9006 16.8546 16.0345 16.6513 16.2111 16.5251" stroke="black" stroke-linecap="round"/>
<path d="M19.3264 22.3582L19.2932 22.3913" stroke="black" stroke-width="5" stroke-linecap="round"/>
<path d="M22.8395 18.9114C22.851 18.887 22.9026 18.777 22.834 18.8598C22.1291 19.7105 21.4929 20.6286 20.8289 21.5112C19.9903 22.6258 19.26 23.8108 18.2585 24.785C17.8731 25.1598 17.2511 25.3521 16.7689 25.5546C15.7962 25.9631 14.7524 26.1272 13.7584 26.466C12.5409 26.8811 11.4073 27.4747 10.2693 28.0698C9.90453 28.2605 9.54218 28.3886 9.16268 28.5374C9.07232 28.5729 8.93898 28.6481 8.84599 28.6553C8.79017 28.6596 8.7418 28.6748 8.69316 28.7032C8.64629 28.7305 8.88775 28.6503 8.90122 28.6442C9.29332 28.4685 9.65107 28.2028 10.017 27.9814C11.5296 27.0663 13.1443 26.4962 14.7859 25.8603C16.2051 25.3105 17.6337 24.6753 18.8513 23.7465C19.8681 22.9709 20.6762 21.954 21.3499 20.876C21.8713 20.0418 22.2532 19.1473 22.7143 18.2817C23.0849 17.586 23.4995 16.9168 23.8503 16.2103C24.3603 15.1834 25.0305 14.2734 25.6198 13.2956C25.8423 12.9264 26.0918 12.5042 26.2035 12.0822C26.3361 11.5812 26.4089 11.0582 26.6435 10.5889C26.727 10.422 26.8517 10.31 26.9676 10.1691C26.993 10.1382 27.023 10.0585 27.056 10.0365C27.1323 9.98566 27.0826 10.2193 27.0781 10.3109C27.0399 11.0735 26.7936 11.8412 26.6454 12.5867C26.4042 13.7998 26.1419 15.0205 26.0506 16.2563C25.9614 17.4646 25.9959 18.675 26.1464 19.8762C26.2569 20.7585 26.4451 21.7936 26.1703 22.6657C26.046 23.0602 25.7733 23.3442 25.5369 23.6729C24.9267 24.5212 24.1601 25.2043 23.1525 25.5509C22.6644 25.7188 22.1516 25.8111 21.6537 25.945C20.9398 26.1369 20.2322 26.3731 19.5363 26.6225C18.265 27.0782 17.0965 27.7279 15.7544 27.9851C14.9476 28.1396 14.1148 28.2372 13.3276 28.4785C13.1708 28.5266 13.0251 28.6046 12.8599 28.6203C12.8591 28.6204 13.167 28.5341 13.2503 28.4988C13.9699 28.1932 14.6504 27.7645 15.3419 27.4032C16.8281 26.627 18.3779 25.9979 19.8917 25.2803C21.122 24.697 22.4453 24.0245 23.4508 23.0837C23.7509 22.8029 24.0253 22.4208 24.3788 22.1999C24.4392 22.1621 24.9872 21.8344 24.7599 22.0268C24.0171 22.6553 23.3105 23.3259 22.5725 23.9601C21.3104 25.0447 19.9984 25.9494 18.5291 26.733C17.8696 27.0847 17.2191 27.4219 16.5056 27.6463C16.0779 27.7808 15.6432 27.9047 15.2094 28.0182C14.8376 28.1155 14.4664 28.2038 14.1064 28.3423C13.842 28.444 13.5925 28.6347 13.3755 28.8136C13.2005 28.9578 12.5834 29.2488 12.7642 29.1119C13.1973 28.7838 13.8509 28.8205 14.3624 28.7915C16.036 28.6967 17.7277 28.7456 19.4037 28.7547C20.4274 28.7603 21.4384 28.9005 22.462 28.8063C22.9469 28.7616 23.4238 28.74 23.9074 28.67C24.1766 28.6311 24.4434 28.5654 24.7139 28.5374C25.1867 28.4885 25.6585 28.5081 26.1317 28.438C26.3929 28.3993 26.6841 28.4045 26.9326 28.3073C27.6139 28.0407 27.9535 27.1528 28.2086 26.5268C28.4103 26.0318 28.6014 25.5499 28.691 25.0207C28.744 24.7072 28.8383 24.394 28.8383 24.0742C28.8383 23.7242 28.7389 23.3755 28.7389 23.0155C28.7389 21.3005 29.1366 19.6016 29.3281 17.9024C29.4347 16.9562 29.3686 15.9697 29.3686 15.0171C29.3686 14.007 29.4349 12.9969 29.4349 11.9846C29.4349 11.1745 29.3354 10.3762 29.3354 9.56519" stroke="black" stroke-width="5" stroke-linecap="round"/>
<path d="M29.236 22.1262C29.0472 23.5258 28.9578 24.9202 28.8273 26.3243C28.7576 27.0743 28.7389 27.8354 28.7389 28.589" stroke="black" stroke-width="5" stroke-linecap="round"/>
<path d="M10.0465 27.5615C10.1691 27.4317 10.2554 27.2874 10.3522 27.138C10.6473 26.6824 10.9483 26.2269 11.2857 25.8012C12.3797 24.4209 13.4678 22.9768 14.7251 21.7431C15.1824 21.2945 15.7057 20.9568 16.2368 20.6052C16.6584 20.3261 17.0662 20.0266 17.4852 19.7435C18.0484 19.363 18.6515 19.053 19.2344 18.7051C20.0226 18.2344 20.8975 17.8065 21.4162 17.0148C21.8703 16.3217 22.259 15.5894 22.7327 14.9084C23.0937 14.3895 23.4676 13.8702 23.9222 13.428C24.0296 13.3235 24.1551 13.2387 24.2315 13.1113" stroke="black" stroke-width="5" stroke-linecap="round"/>
<path d="M14.4691 21.4115C14.5135 21.3005 14.7121 21.2019 14.7973 21.127C15.0519 20.9029 15.3021 20.6732 15.5356 20.4271C16.1528 19.7765 16.745 19.0908 17.2995 18.3863C17.7326 17.836 18.1621 17.2868 18.6121 16.7507C18.799 16.528 19.0133 16.389 19.2223 16.1969C19.4265 16.0093 19.8554 15.7198 20.1452 15.6893C20.5369 15.648 20.949 15.2602 21.2528 15.0432" stroke="black" stroke-width="5" stroke-linecap="round"/>
<path d="M22.4525 14.1664C22.2612 14.1425 22.9934 13.0826 23.0191 13.0461C23.3831 12.5284 23.7725 12.0287 24.1497 11.5207C24.1719 11.4907 24.6072 10.934 24.4856 10.9746C23.8869 11.1741 23.3139 11.5691 22.7884 11.9103C22.3746 12.179 21.9216 12.3937 21.527 12.6897C21.2667 12.885 20.9587 13.0232 20.681 13.1922C20.5214 13.2893 20.3281 13.4437 20.5605 13.1948C20.798 12.9403 20.9778 12.6392 21.186 12.3616C21.7854 11.5624 22.3935 10.8327 23.1498 10.1696C23.8817 9.5279 24.8139 9.1704 25.5649 8.57236C25.7446 8.42926 25.9339 8.35715 26.0981 8.19292C26.3541 7.93693 26.6411 7.7166 26.898 7.45969C27.6415 6.71622 28.4499 6.0463 29.19 5.30615" stroke="black" stroke-width="2" stroke-linecap="round"/>
<path d="M29.8361 8.62884C30.3312 8.00411 30.3899 7.50691 30.3899 6.74706C30.3899 6.56589 30.3899 6.38472 30.3899 6.20355C30.3899 6.05223 30.4399 5.81811 30.2156 5.96768C29.9876 6.11964 29.4892 6.50779 29.467 6.81884C29.4617 6.89288 29.4292 7.16938 29.5593 7.04958C29.847 6.78457 30.3547 5.65584 29.5798 5.81898C29.2849 5.88106 28.937 6.09576 28.6825 6.24969C28.557 6.32555 28.1394 6.73634 27.9697 6.63938C27.8388 6.56455 27.8628 5.8243 27.9339 5.63952C27.9856 5.50486 28.2974 5.42637 28.4287 5.37802C28.659 5.29315 28.9122 5.26852 29.1414 5.18831C29.5464 5.04654 29.8225 4.7661 30.113 4.47559" stroke="black" stroke-width="2" stroke-linecap="round"/>
<path d="M11.2849 26.2108C10.9144 26.2355 10.5495 26.3493 10.1774 26.3493C9.75603 26.3493 9.21372 26.3383 8.82115 26.4903C8.36249 26.6678 8.03543 26.9648 7.62902 27.2261C7.34913 27.406 7.13825 27.6265 6.88297 27.8439C6.86342 27.8606 6.61052 28.081 6.73171 27.9952C6.96985 27.8265 6.97642 27.6186 7.09832 27.3799C7.31093 26.9635 7.73572 26.663 8.05972 26.339C8.30111 26.0976 8.48177 25.8042 8.72117 25.5648C8.8166 25.4693 9.27011 25.1181 9.25443 25.1494" stroke="black" stroke-width="2" stroke-linecap="round"/>
<path d="M7.77773 27.3184C7.04872 28.2462 6.33688 29.4206 5.14734 29.718" stroke="black" stroke-width="2" stroke-linecap="round"/>
<path d="M30.0968 5.67382C30.1538 5.64791 30.1862 5.53442 30.2026 5.48C30.2477 5.33072 30.2638 5.16987 30.2872 5.01619C30.3006 4.92867 30.311 4.84027 30.3253 4.75296C30.3344 4.69749 30.3672 4.56848 30.4167 4.5346C30.4638 4.50238 30.5472 4.90286 30.553 4.97218C30.5636 5.0991 30.6149 5.28459 30.7214 5.36743C30.8675 5.48104 30.7494 5.07206 30.7434 5.04581C30.7015 4.86088 30.6816 4.66698 30.6529 4.47958C30.6227 4.2823 30.5772 4.08815 30.5699 3.88796C30.5602 3.61986 30.6008 3.376 30.6842 3.12115C30.718 3.01795 30.7478 2.91488 30.7942 2.81645C30.8096 2.78384 30.827 2.73959 30.8281 2.70303C30.8296 2.64928 30.823 2.56053 30.8662 2.52699C30.8909 2.50778 30.9068 2.48211 30.9229 2.45589C30.9321 2.44092 31.0082 2.32491 30.9737 2.3594C30.7552 2.57785 30.5569 2.87263 30.4108 3.14315C30.3557 3.24526 30.3155 3.33358 30.2348 3.41907C30.1723 3.4852 30.1112 3.55481 30.052 3.62389C29.9153 3.78333 29.7476 3.92991 29.589 4.0674C29.4901 4.1531 29.3888 4.23974 29.2826 4.31623C29.1807 4.3896 29.0673 4.45595 28.9576 4.51598C28.7911 4.60712 28.9515 4.54622 29.0151 4.50074" stroke="black" stroke-linecap="round"/>
<circle cx="6" cy="20" r="4" fill="black"/>
<path d="M15.1041 8.44849C15.1041 9.23646 15.1708 10.0239 15.1708 10.8162C15.1708 11.3265 15.1708 11.8369 15.1708 12.3472" stroke="black" stroke-width="0.5" stroke-linecap="round"/>
<path d="M15.0375 12.6472C14.9242 12.7746 14.8741 13.0129 14.845 13.173C14.7936 13.4552 14.7535 13.7603 14.7376 14.0468C14.7181 14.3983 14.6709 14.7507 14.6709 15.1057C14.6709 15.4946 14.6565 15.8642 14.7635 16.2386C14.7873 16.322 14.7709 16.4258 14.7709 16.5126" stroke="black" stroke-width="0.5" stroke-linecap="round"/>
<path d="M15.1707 12.5471C15.6758 12.5471 16.1124 13.1976 16.3203 13.6134C16.4875 13.9479 16.7035 14.2645 16.7035 14.6538C16.7035 14.8231 16.7701 14.9955 16.7701 15.1796" stroke="black" stroke-width="0.5" stroke-linecap="round"/>
<path d="M14.8708 9.34831C14.6535 9.34831 14.5131 9.33952 14.3228 9.44828C14.1005 9.57529 13.9665 9.77402 13.8637 10.0074C13.6904 10.4006 13.5686 10.7741 13.4546 11.1847C13.3745 11.473 13.4046 12.0807 13.4046 12.0807" stroke="black" stroke-width="0.5" stroke-linecap="round"/>
<path d="M15.1707 9.41481C15.4043 9.41481 15.6726 9.3265 15.9019 9.39815C15.995 9.42725 16.0893 9.42955 16.1444 9.51478C16.1791 9.56836 16.3486 9.66385 16.411 9.6888C16.5243 9.73411 16.6637 9.93061 16.7442 10.0257C16.886 10.1933 17.0216 10.3844 17.12 10.5811C17.2322 10.8055 17.3699 11.091 17.3699 11.3475" stroke="black" stroke-width="0.5" stroke-linecap="round"/>
<path d="M15.0707 8.28199C15.0429 8.50463 14.271 8.31376 14.271 7.98209C14.271 7.6515 14.0717 6.91048 14.6042 6.88245C15.0505 6.85896 15.6039 6.99004 15.6039 7.54149C15.6039 7.76918 15.6124 7.91649 15.5039 8.11538C15.3725 8.35637 15.1582 8.38196 14.9041 8.38196" stroke="black" stroke-width="0.5" stroke-linecap="round"/>
<path d="M10.3606 19.375C10.3676 19.4313 10.6552 19.1658 10.6838 19.1427C11.07 18.8305 11.4549 18.5258 11.8236 18.1919C12.0364 17.9992 12.2896 17.8355 12.4902 17.635" stroke="black" stroke-width="0.1" stroke-linecap="round"/>
<path d="M9.7113 17.2194C9.78949 17.0844 9.91034 16.9752 9.99553 16.8429C10.1567 16.5926 10.3192 16.3548 10.5308 16.1431C10.7146 15.9593 10.9098 15.7965 11.0848 15.6035C11.1369 15.5461 11.1931 15.501 11.2176 15.4275" stroke="black" stroke-width="0.1" stroke-linecap="round"/>
<path d="M10.4385 13.2979C10.03 13.7215 9.67231 14.1809 9.32178 14.6483" stroke="black" stroke-width="0.1" stroke-linecap="round"/>
<path d="M5.63391 15.8169C5.74115 15.7418 5.80721 15.6109 5.88496 15.5082C6.04647 15.2948 6.23579 15.1112 6.42456 14.9224C6.65196 14.695 6.91346 14.5114 7.14019 14.2847" stroke="black" stroke-width="0.1" stroke-linecap="round"/>
<path d="M2.98499 16.6221C3.56622 15.8397 4.20241 15.1374 4.95873 14.5186" stroke="black" stroke-width="0.1" stroke-linecap="round"/>
<path d="M1.245 21.5304C1.31946 21.5155 1.37752 21.3998 1.42679 21.3486C1.50923 21.2629 1.56997 21.1643 1.66052 21.0889" stroke="black" stroke-width="0.1" stroke-linecap="round"/>
<path d="M1.66052 23.6859C1.87662 23.3618 2.12124 23.057 2.36172 22.751" stroke="black" stroke-width="0.1" stroke-linecap="round"/>
<path d="M5.37427 24.4132C5.48118 24.4132 5.58096 24.259 5.63397 24.1794" stroke="black" stroke-width="0.1" stroke-linecap="round"/>
<path d="M3.42651 24.3354C3.46431 24.1275 3.69078 23.8991 3.81607 23.738" stroke="black" stroke-width="0.1" stroke-linecap="round"/>
<path d="M4.95874 25.7637C5.10452 25.7637 5.16919 25.546 5.26461 25.4636C5.37946 25.3644 5.51678 25.262 5.608 25.1404" stroke="black" stroke-width="0.1" stroke-linecap="round"/>
<path d="M4.33545 24.5171C4.33545 24.4118 4.42316 24.1486 4.51724 24.1016" stroke="black" stroke-width="0.1" stroke-linecap="round"/>
<path d="M8.93225 16.6741C8.98877 16.5867 9.09667 16.518 9.16743 16.4389C9.33107 16.256 9.4924 16.0709 9.66808 15.8993C9.81277 15.7579 9.92815 15.5881 10.0778 15.452C10.1778 15.3612 10.2906 15.2898 10.3866 15.1938C10.6496 14.9307 10.9335 14.5567 11.2696 14.3887" stroke="black" stroke-width="0.1" stroke-linecap="round"/>
<path d="M7.18042 15.8536C7.29538 15.8306 7.40173 15.6282 7.46392 15.5442C7.58293 15.3836 7.74718 15.2566 7.87855 15.1065C7.94268 15.0332 8.01234 14.9642 8.0771 14.8913C8.1159 14.8477 8.14905 14.7847 8.19437 14.7491C8.24551 14.7089 8.26691 14.6453 8.31904 14.6069C8.35866 14.5777 8.42086 14.5083 8.44463 14.4647C8.4753 14.4085 8.54309 14.3513 8.59331 14.3114C8.67238 14.2486 8.73604 14.1699 8.81124 14.1027C8.87324 14.0473 8.924 13.9551 8.99224 13.9125C9.10028 13.8449 9.17894 13.6991 9.29144 13.6428" stroke="black" stroke-width="0.1" stroke-linecap="round"/>
<path d="M5.46672 29.5315C4.99814 29.5315 4.59466 29.7606 4.17898 29.9204C3.79152 30.0695 3.53001 30.2884 3.10148 30.2884C3.05763 30.2884 2.70524 30.3442 2.73355 30.3725C2.86944 30.5084 3.38607 30.2884 3.55087 30.2884C3.64247 30.2884 3.72902 30.2417 3.81631 30.2174C3.98544 30.1704 4.17844 30.1938 4.35243 30.1938C4.78693 30.1938 5.22143 30.1938 5.65594 30.1938" stroke="black" stroke-linecap="round"/>
<path d="M25.4425 30.6016C25.47 30.6634 25.7491 30.6397 25.8112 30.6397C25.9861 30.6397 26.1568 30.6765 26.3311 30.6778C26.6215 30.6802 26.9044 30.6299 27.1943 30.6355C27.4505 30.6404 27.7477 30.621 28.001 30.6934C28.0575 30.7095 28.1172 30.7287 28.1761 30.7287C28.1886 30.7287 28.2506 30.7287 28.2397 30.7287" stroke="black" stroke-linecap="round"/>
</svg>
