<svg width="32" height="32" viewBox="0 0 32 32" fill="none" xmlns="http://www.w3.org/2000/svg">
<path d="M4 0.5H28C29.933 0.5 31.5 2.067 31.5 4V28C31.5 29.933 29.933 31.5 28 31.5H4C2.067 31.5 0.5 29.933 0.5 28V4C0.5 2.067 2.067 0.5 4 0.5Z" fill="#FFC65C" stroke="black"/>
<line x1="1.64645" y1="30.6464" x2="30.6464" y2="1.64645" stroke="black"/>
<path d="M17.4475 24.7751C17.2365 24.8879 17.0152 24.9703 16.7902 25.049" stroke="black" stroke-linecap="round"/>
<path d="M3 31C3.10308 30.8016 3.2552 30.7004 3.38384 30.5806C3.58788 30.3905 3.8095 30.2357 4 30" stroke="black" stroke-linecap="round"/>
<path d="M2.82178 30.883C3.27708 30.883 3.72011 30.7432 4.17602 30.7126C4.89368 30.6644 5.59422 30.5817 6.31542 30.5817C7.20071 30.5817 8.08628 30.6091 8.97217 30.6091C9.49624 30.6091 10.024 30.5913 10.547 30.6228C11.7021 30.6924 12.8534 30.6913 14.0103 30.6913C15.2661 30.6913 16.5449 30.758 17.7976 30.6578C18.2922 30.6182 18.7872 30.5366 19.2827 30.4935C19.8318 30.4457 20.3903 30.4722 20.9412 30.4722C21.574 30.4722 22.2048 30.4494 22.8372 30.4448C23.5722 30.4394 24.2943 30.2958 25.0253 30.2515C25.3568 30.2315 25.6832 30.1709 26.0158 30.1709C26.3602 30.1709 26.7046 30.1709 27.049 30.1709C27.6606 30.1709 28.2697 30.2257 28.8795 30.2257C29.2836 30.2257 29.6834 30.2328 30.0862 30.2515C30.2637 30.2598 30.4456 30.2805 30.6218 30.2805" stroke="black" stroke-linecap="round"/>
<path d="M30 30C30 30 30 29.1422 30 29.0826C30 28.6657 30 28.2695 30 27.8557C30 27.1231 30 26.4081 30 25.6684C30 25.1799 30 24.7052 30 24.2277C30 23.8462 30 23.4641 30 23.0789C30 22.883 30 23.1039 30 23.1838C30 23.6208 30 24.0594 30 24.4981C30 24.9784 30 25.4602 30 25.9429C30 26.2148 30 26.4822 30 26.7527C30 26.9537 30 27.1513 30 27.3526C30 27.6188 30 27.8782 30 28.1463C30 28.2758 30 28.5505 30 28.6561C30 28.7218 30 28.8738 30 28.9104" stroke="black" stroke-linecap="round"/>
<path d="M3.05347 29.9479C3.16159 29.9359 3.33438 29.7512 3.41803 29.6827C3.49892 29.6166 3.5841 29.5645 3.6574 29.4912C3.83965 29.309 4.06155 29.1632 4.25396 28.9794C4.62817 28.6218 5.06148 28.3007 5.46551 27.974C5.64404 27.8297 5.84295 27.6238 5.93687 27.4125C6.21583 26.7848 6.75533 26.3933 7.22943 25.9192C7.89429 25.2543 8.61899 24.6517 9.21798 23.9196C9.64219 23.4011 9.97153 22.7542 10.4774 22.3085C11.2899 21.5927 12.0907 20.8775 12.8563 20.1119C13.4017 19.5665 13.9464 19.0218 14.4913 18.4769C14.773 18.1952 15.0808 17.9226 15.318 17.6023C15.4632 17.4064 15.6287 17.227 15.7728 17.0296C15.9006 16.8546 16.0345 16.6513 16.2111 16.5251" stroke="black" stroke-linecap="round"/>
<path d="M19.3264 22.3582L19.2932 22.3913" stroke="black" stroke-width="5" stroke-linecap="round"/>
<path d="M22.8395 18.9114C22.851 18.887 22.9026 18.777 22.834 18.8598C22.1291 19.7105 21.4929 20.6286 20.8289 21.5112C19.9903 22.6258 19.26 23.8108 18.2585 24.785C17.8731 25.1598 17.2511 25.3521 16.7689 25.5546C15.7962 25.9631 14.7524 26.1272 13.7584 26.466C12.5409 26.8811 11.4073 27.4747 10.2693 28.0698C9.90453 28.2605 9.54218 28.3886 9.16268 28.5374C9.07232 28.5729 8.93898 28.6481 8.84599 28.6553C8.79017 28.6596 8.7418 28.6748 8.69316 28.7032C8.64629 28.7305 8.88775 28.6503 8.90122 28.6442C9.29332 28.4685 9.65107 28.2028 10.017 27.9814C11.5296 27.0663 13.1443 26.4962 14.7859 25.8603C16.2051 25.3105 17.6337 24.6753 18.8513 23.7465C19.8681 22.9709 20.6762 21.954 21.3499 20.876C21.8713 20.0418 22.2532 19.1473 22.7143 18.2817C23.0849 17.586 23.4995 16.9168 23.8503 16.2103C24.3603 15.1834 25.0305 14.2734 25.6198 13.2956C25.8423 12.9264 26.0918 12.5042 26.2035 12.0822C26.3361 11.5812 26.4089 11.0582 26.6435 10.5889C26.727 10.422 26.8517 10.31 26.9676 10.1691C26.993 10.1382 27.023 10.0585 27.056 10.0365C27.1323 9.98566 27.0826 10.2193 27.0781 10.3109C27.0399 11.0735 26.7936 11.8412 26.6454 12.5867C26.4042 13.7998 26.1419 15.0205 26.0506 16.2563C25.9614 17.4646 25.9959 18.675 26.1464 19.8762C26.2569 20.7585 26.4451 21.7936 26.1703 22.6657C26.046 23.0602 25.7733 23.3442 25.5369 23.6729C24.9267 24.5212 24.1601 25.2043 23.1525 25.5509C22.6644 25.7188 22.1516 25.8111 21.6537 25.945C20.9398 26.1369 20.2322 26.3731 19.5363 26.6225C18.265 27.0782 17.0965 27.7279 15.7544 27.9851C14.9476 28.1396 14.1148 28.2372 13.3276 28.4785C13.1708 28.5266 13.0251 28.6046 12.8599 28.6203C12.8591 28.6204 13.167 28.5341 13.2503 28.4988C13.9699 28.1932 14.6504 27.7645 15.3419 27.4032C16.8281 26.627 18.3779 25.9979 19.8917 25.2803C21.122 24.697 22.4453 24.0245 23.4508 23.0837C23.7509 22.8029 24.0253 22.4208 24.3788 22.1999C24.4392 22.1621 24.9872 21.8344 24.7599 22.0268C24.0171 22.6553 23.3105 23.3259 22.5725 23.9601C21.3104 25.0447 19.9984 25.9494 18.5291 26.733C17.8696 27.0847 17.2191 27.4219 16.5056 27.6463C16.0779 27.7808 15.6432 27.9047 15.2094 28.0182C14.8376 28.1155 14.4664 28.2038 14.1064 28.3423C13.842 28.444 13.5925 28.6347 13.3755 28.8136C13.2005 28.9578 12.5834 29.2488 12.7642 29.1119C13.1973 28.7838 13.8509 28.8205 14.3624 28.7915C16.036 28.6967 17.7277 28.7456 19.4037 28.7547C20.4274 28.7603 21.4384 28.9005 22.462 28.8063C22.9469 28.7616 23.4238 28.74 23.9074 28.67C24.1766 28.6311 24.4434 28.5654 24.7139 28.5374C25.1867 28.4885 25.6585 28.5081 26.1317 28.438C26.3929 28.3993 26.6841 28.4045 26.9326 28.3073C27.6139 28.0407 27.9535 27.1528 28.2086 26.5268C28.4103 26.0318 28.6014 25.5499 28.691 25.0207C28.744 24.7072 28.8383 24.394 28.8383 24.0742C28.8383 23.7242 28.7389 23.3755 28.7389 23.0155C28.7389 21.3005 29.1366 19.6016 29.3281 17.9024C29.4347 16.9562 29.3686 15.9697 29.3686 15.0171C29.3686 14.007 29.4349 12.9969 29.4349 11.9846C29.4349 11.1745 29.3354 10.3762 29.3354 9.56519" stroke="black" stroke-width="5" stroke-linecap="round"/>
<path d="M29.236 22.1262C29.0472 23.5258 28.9578 24.9202 28.8273 26.3243C28.7576 27.0743 28.7389 27.8354 28.7389 28.589" stroke="black" stroke-width="5" stroke-linecap="round"/>
<path d="M10.0465 27.5615C10.1691 27.4317 10.2554 27.2874 10.3522 27.138C10.6473 26.6824 10.9483 26.2269 11.2857 25.8012C12.3797 24.4209 13.4678 22.9768 14.7251 21.7431C15.1824 21.2945 15.7057 20.9568 16.2368 20.6052C16.6584 20.3261 17.0662 20.0266 17.4852 19.7435C18.0484 19.363 18.6515 19.053 19.2344 18.7051C20.0226 18.2344 20.8975 17.8065 21.4162 17.0148C21.8703 16.3217 22.259 15.5894 22.7327 14.9084C23.0937 14.3895 23.4676 13.8702 23.9222 13.428C24.0296 13.3235 24.1551 13.2387 24.2315 13.1113" stroke="black" stroke-width="5" stroke-linecap="round"/>
<path d="M14.4691 21.4115C14.5135 21.3005 14.7121 21.2019 14.7973 21.127C15.0519 20.9029 15.3021 20.6732 15.5356 20.4271C16.1528 19.7765 16.745 19.0908 17.2995 18.3863C17.7326 17.836 18.1621 17.2868 18.6121 16.7507C18.799 16.528 19.0133 16.389 19.2223 16.1969C19.4265 16.0093 19.8554 15.7198 20.1452 15.6893C20.5369 15.648 20.949 15.2602 21.2528 15.0432" stroke="black" stroke-width="5" stroke-linecap="round"/>
<path d="M22.4525 14.1664C22.2612 14.1425 22.9934 13.0826 23.0191 13.0461C23.3831 12.5284 23.7725 12.0287 24.1497 11.5207C24.1719 11.4907 24.6072 10.934 24.4856 10.9746C23.8869 11.1741 23.3139 11.5691 22.7884 11.9103C22.3746 12.179 21.9216 12.3937 21.527 12.6897C21.2667 12.885 20.9587 13.0232 20.681 13.1922C20.5214 13.2893 20.3281 13.4437 20.5605 13.1948C20.798 12.9403 20.9778 12.6392 21.186 12.3616C21.7854 11.5624 22.3935 10.8327 23.1498 10.1696C23.8817 9.5279 24.8139 9.1704 25.5649 8.57236C25.7446 8.42926 25.9339 8.35715 26.0981 8.19292C26.3541 7.93693 26.6411 7.7166 26.898 7.45969C27.6415 6.71622 28.4499 6.0463 29.19 5.30615" stroke="black" stroke-width="2" stroke-linecap="round"/>
<path d="M29.8361 8.62884C30.3312 8.00411 30.3899 7.50691 30.3899 6.74706C30.3899 6.56589 30.3899 6.38472 30.3899 6.20355C30.3899 6.05223 30.4399 5.81811 30.2156 5.96768C29.9876 6.11964 29.4892 6.50779 29.467 6.81884C29.4617 6.89288 29.4292 7.16938 29.5593 7.04958C29.847 6.78457 30.3547 5.65584 29.5798 5.81898C29.2849 5.88106 28.937 6.09576 28.6825 6.24969C28.557 6.32555 28.1394 6.73634 27.9697 6.63938C27.8388 6.56455 27.8628 5.8243 27.9339 5.63952C27.9856 5.50486 28.2974 5.42637 28.4287 5.37802C28.659 5.29315 28.9122 5.26852 29.1414 5.18831C29.5464 5.04654 29.8225 4.7661 30.113 4.47559" stroke="black" stroke-width="2" stroke-linecap="round"/>
<path d="M11.2849 26.2108C10.9144 26.2355 10.5495 26.3493 10.1774 26.3493C9.75603 26.3493 9.21372 26.3383 8.82115 26.4903C8.36249 26.6678 8.03543 26.9648 7.62902 27.2261C7.34913 27.406 7.13825 27.6265 6.88297 27.8439C6.86342 27.8606 6.61052 28.081 6.73171 27.9952C6.96985 27.8265 6.97642 27.6186 7.09832 27.3799C7.31093 26.9635 7.73572 26.663 8.05972 26.339C8.30111 26.0976 8.48177 25.8042 8.72117 25.5648C8.8166 25.4693 9.27011 25.1181 9.25443 25.1494" stroke="black" stroke-width="2" stroke-linecap="round"/>
<path d="M7.77773 27.3184C7.04872 28.2462 6.33688 29.4206 5.14734 29.718" stroke="black" stroke-width="2" stroke-linecap="round"/>
<path d="M30.0968 5.67382C30.1538 5.64791 30.1862 5.53442 30.2026 5.48C30.2477 5.33072 30.2638 5.16987 30.2872 5.01619C30.3006 4.92867 30.311 4.84027 30.3253 4.75296C30.3344 4.69749 30.3672 4.56848 30.4167 4.5346C30.4638 4.50238 30.5472 4.90286 30.553 4.97218C30.5636 5.0991 30.6149 5.28459 30.7214 5.36743C30.8675 5.48104 30.7494 5.07206 30.7434 5.04581C30.7015 4.86088 30.6816 4.66698 30.6529 4.47958C30.6227 4.2823 30.5772 4.08815 30.5699 3.88796C30.5602 3.61986 30.6008 3.376 30.6842 3.12115C30.718 3.01795 30.7478 2.91488 30.7942 2.81645C30.8096 2.78384 30.827 2.73959 30.8281 2.70303C30.8296 2.64928 30.823 2.56053 30.8662 2.52699C30.8909 2.50778 30.9068 2.48211 30.9229 2.45589C30.9321 2.44092 31.0082 2.32491 30.9737 2.3594C30.7552 2.57785 30.5569 2.87263 30.4108 3.14315C30.3557 3.24526 30.3155 3.33358 30.2348 3.41907C30.1723 3.4852 30.1112 3.55481 30.052 3.62389C29.9153 3.78333 29.7476 3.92991 29.589 4.0674C29.4901 4.1531 29.3888 4.23974 29.2826 4.31623C29.1807 4.3896 29.0673 4.45595 28.9576 4.51598C28.7911 4.60712 28.9515 4.54622 29.0151 4.50074" stroke="black" stroke-linecap="round"/>
<circle cx="18" cy="8" r="4" fill="black"/>
<path d="M12.7545 10.9583C12.7545 11.6568 12.7545 12.3554 12.7545 13.0539C12.7545 13.7301 12.9495 14.3499 12.9495 15.0521" stroke="black" stroke-width="0.5" stroke-linecap="round"/>
<path d="M13.047 15.3445C13.047 15.8481 13.047 16.3517 13.047 16.8553C13.047 17.3923 12.8521 17.9105 12.8521 18.4636" stroke="black" stroke-width="0.5" stroke-linecap="round"/>
<path d="M12.835 12.3936C13.3095 12.3936 13.5219 11.7705 13.8557 11.5201C14.1214 11.3208 14.4188 10.835 14.5217 10.5261" stroke="black" stroke-width="0.5" stroke-linecap="round"/>
<path d="M12.7748 13.8394C13.106 13.545 13.6125 13.3978 13.9662 13.1165C14.2105 12.9222 14.4436 12.5823 14.7327 12.4538C15.0677 12.3049 15.2393 11.824 15.5459 11.6707" stroke="black" stroke-width="0.5" stroke-linecap="round"/>
<path d="M13.1759 15.3117C13.2982 15.2845 13.5015 15.0549 13.6196 14.9789C13.8071 14.8584 13.9943 14.821 14.1988 14.7571C14.3683 14.7041 15.0075 14.5958 15.2168 14.7004C15.3692 14.7766 15.4387 15.0953 15.4387 15.2451C15.4387 15.4365 15.6329 15.5672 15.7049 15.711" stroke="black" stroke-width="0.5" stroke-linecap="round"/>
<path d="M12.8092 10.848C12.6174 10.872 12.4127 10.8732 12.2108 10.8732C12.0062 10.8732 11.896 10.7657 11.727 10.6663C11.5718 10.575 11.4754 10.2607 11.4754 10.0916C11.4754 9.79194 11.4375 9.52272 11.6389 9.27651C11.8462 9.02325 12.3268 9.06596 12.6023 9.08636C12.8229 9.10271 12.9921 9.28469 13.0916 9.46387C13.1973 9.65405 13.3629 9.88355 13.3629 10.1056C13.3629 10.2297 13.3812 10.3686 13.3601 10.4901C13.3225 10.706 13.2226 10.6962 13.1112 10.8355C13.0547 10.9061 12.9412 10.8883 12.8721 10.9361C12.7965 10.9885 12.6739 11.0242 12.5827 11.0242" stroke="black" stroke-width="0.5" stroke-linecap="round"/>
<path d="M2.75494 30.3438C2.69977 30.3438 2.63818 30.3666 2.58982 30.3916C2.55233 30.4109 2.56143 30.4224 2.59836 30.4315C2.63676 30.441 2.6632 30.4394 2.69982 30.4206C2.71435 30.4131 2.74346 30.3907 2.71982 30.3789" stroke="black" stroke-linecap="round"/>
<path d="M28.6252 30.1484C28.4234 30.2553 28.1618 30.2657 27.9389 30.2993C27.7113 30.3337 27.4875 30.3229 27.259 30.3359C27.0592 30.3472 26.8654 30.3943 26.6671 30.4194C26.3458 30.46 26.0152 30.4719 25.697 30.5356C25.6534 30.5443 25.607 30.56 25.5629 30.5645C25.4767 30.5731 25.6782 30.6116 25.6887 30.6133C25.8379 30.6372 25.9856 30.6407 26.1362 30.6466C26.3069 30.6534 26.4788 30.6883 26.6485 30.7089C26.9211 30.7421 27.1982 30.7723 27.4722 30.793C27.7597 30.8148 28.0488 30.784 28.3363 30.784" stroke="black" stroke-linecap="round"/>
</svg>
