<svg width="32" height="32" viewBox="0 0 32 32" fill="none" xmlns="http://www.w3.org/2000/svg">
<rect x="0.5" y="0.5" width="31" height="31" rx="3.5" fill="#EDF5E1" stroke="black"/>
<circle cx="22" cy="27" r="4" fill="black"/>
<path d="M10.5232 25.1914C10.5232 26.3609 10.5922 27.5319 10.5922 28.71" stroke="black" stroke-width="0.5" stroke-linecap="round"/>
<path d="M10.2856 26.0869C10.1812 25.9941 10.0656 26.1435 9.99501 26.192C9.9273 26.2386 9.87602 26.3084 9.82236 26.3722C9.63683 26.5928 9.4041 26.8042 9.25187 27.0478C9.11047 27.274 9.03096 27.6051 9.03096 27.8713C9.03096 27.9471 8.97588 28.0194 8.97305 28.0987C8.97127 28.1487 8.95519 28.188 8.93445 28.2295" stroke="black" stroke-width="0.5" stroke-linecap="round"/>
<path d="M10.6523 25.9903C10.7276 25.982 10.8083 25.9513 10.8883 25.9753C11.0886 26.0354 11.2822 26.1113 11.4802 26.1791C11.7653 26.2766 12.0441 26.5339 12.2502 26.7474C12.4484 26.9527 12.5567 27.2439 12.6791 27.4959C12.7712 27.6855 12.8142 27.9426 12.8142 28.1522" stroke="black" stroke-width="0.5" stroke-linecap="round"/>
<path d="M10.6568 25.0552C10.7124 25.0552 10.7473 25.0352 10.7989 25.0157C10.8957 24.9793 10.997 24.956 11.0927 24.9162C11.3055 24.8279 11.4579 24.6613 11.5777 24.4692C11.7363 24.2148 11.8224 23.8751 11.7372 23.5815C11.6914 23.4238 11.5889 23.324 11.4924 23.1961C11.4062 23.0818 11.2656 22.9846 11.1464 22.9086C10.9526 22.7849 10.6509 22.7537 10.4262 22.7522C10.3263 22.7515 10.1897 22.7291 10.096 22.7727C10.0178 22.8092 9.94722 22.8628 9.87804 22.9133C9.64861 23.0808 9.54897 23.3066 9.4642 23.5688C9.40697 23.7458 9.37732 23.8865 9.37732 24.0711C9.37732 24.2121 9.37889 24.3587 9.42944 24.4929C9.46791 24.595 9.5403 24.6746 9.60794 24.7567C9.67204 24.8345 9.78818 24.8665 9.87488 24.9099C9.95109 24.948 10.0444 24.9934 10.1308 24.9984C10.1929 25.0019 10.2499 25.0388 10.3124 25.041C10.3606 25.0427 10.3984 25.0402 10.4435 25.0552" stroke="black" stroke-width="0.5" stroke-linecap="round"/>
<path d="M10.4663 28.6968C10.2959 28.6968 10.1204 28.8043 9.98523 28.9009C9.80388 29.0304 9.63886 29.1996 9.55598 29.4127C9.43591 29.7215 9.30005 30.0542 9.30005 30.3879C9.30005 30.5336 9.30005 30.6794 9.30005 30.8252" stroke="black" stroke-width="0.5" stroke-linecap="round"/>
<path d="M10.6704 28.7114C10.8375 28.7114 11.0092 28.6939 11.1223 28.8353C11.177 28.9036 11.2625 28.9571 11.3264 29.0175C11.4108 29.0972 11.4985 29.1605 11.5816 29.2435C11.6415 29.3034 11.6615 29.382 11.7047 29.4541C11.7502 29.53 11.7917 29.6255 11.8221 29.7092C11.8731 29.8494 11.9443 29.9863 11.9533 30.14C11.9604 30.2606 11.9825 30.3741 11.9825 30.498C11.9825 30.6022 11.9825 30.7064 11.9825 30.8107" stroke="black" stroke-width="0.5" stroke-linecap="round"/>
<path d="M10.6568 25.0552C10.7124 25.0552 10.7473 25.0352 10.7989 25.0157C10.8957 24.9793 10.997 24.956 11.0927 24.9162C11.3055 24.8279 11.4579 24.6613 11.5777 24.4692C11.7363 24.2148 11.8224 23.8751 11.7372 23.5815C11.6914 23.4238 11.5889 23.324 11.4924 23.1961C11.4062 23.0818 11.2656 22.9846 11.1464 22.9086C10.9526 22.7849 10.6509 22.7537 10.4262 22.7522C10.3263 22.7515 10.1897 22.7291 10.096 22.7727C10.0178 22.8092 9.94722 22.8628 9.87804 22.9133C9.64861 23.0808 9.54897 23.3066 9.4642 23.5688C9.40697 23.7458 9.37732 23.8865 9.37732 24.0711C9.37732 24.2121 9.37889 24.3587 9.42944 24.4929C9.46791 24.595 9.5403 24.6746 9.60794 24.7567C9.67204 24.8345 9.78818 24.8665 9.87488 24.9099C9.95109 24.948 10.0444 24.9934 10.1308 24.9984C10.1929 25.0019 10.2499 25.0388 10.3124 25.041C10.3606 25.0427 10.3984 25.0402 10.4435 25.0552" stroke="black" stroke-width="0.5" stroke-linecap="round"/>
</svg>
