<svg width="32" height="32" viewBox="0 0 32 32" fill="none" xmlns="http://www.w3.org/2000/svg">
<rect x="0.5" y="0.5" width="31" height="31" rx="3.5" fill="#EDF5E1" stroke="black"/>
<circle cx="22" cy="27" r="4" fill="black"/>
<path d="M16.2557 24.3909C16.1742 24.4011 16.0918 24.7545 16.0722 24.8103C15.988 25.0503 15.8697 25.2898 15.7691 25.5245C15.6575 25.7849 15.5699 26.0535 15.4759 26.3207C15.3876 26.5717 15.3073 26.8882 15.1794 27.1185C15.0626 27.3287 14.9997 27.5679 14.8927 27.782C14.8549 27.8576 14.8263 27.9554 14.8091 28.0327C14.7893 28.1219 14.7223 28.1875 14.7223 28.2833" stroke="black" stroke-width="0.5" stroke-linecap="round"/>
<path d="M14.8108 28.3718C14.9518 28.3718 15.0466 28.416 15.1827 28.4455C15.3412 28.48 15.512 28.498 15.6643 28.5488C15.9321 28.638 16.2087 28.8249 16.3868 29.0353C16.5569 29.2363 16.6113 29.5263 16.721 29.7578C16.8018 29.9285 16.8206 30.1032 16.852 30.2886C16.8828 30.4695 16.9339 30.6008 16.9339 30.7899" stroke="black" stroke-width="0.5" stroke-linecap="round"/>
<path d="M14.7223 28.3718C14.733 28.4681 14.8377 28.4943 14.8828 28.5651C14.9158 28.617 14.9442 28.7023 14.9647 28.7617C15.016 28.9099 15.0172 29.0705 15.0172 29.227C15.0172 29.5367 14.9302 29.8116 14.7878 30.0821C14.7167 30.2173 14.6181 30.3572 14.5159 30.4655C14.4104 30.5772 14.2831 30.6349 14.1751 30.7309C14.0869 30.8093 13.9415 30.8804 13.8311 30.9144C13.7263 30.9466 13.5856 31.0258 13.4838 31.0258" stroke="black" stroke-width="0.5" stroke-linecap="round"/>
<path d="M15.6364 26.3665C16.1259 26.3665 16.6027 26.3851 17.0829 26.2928C17.2682 26.2571 17.5807 26.1871 17.7153 26.0421C17.7893 25.9624 17.9282 25.884 18.0249 25.8357" stroke="black" stroke-width="0.5" stroke-linecap="round"/>
<path d="M15.5774 26.4846C15.4754 26.4974 15.7935 26.6818 15.81 26.691C15.9288 26.7579 16.0207 26.8274 16.1524 26.868C16.2777 26.9065 16.3784 26.9748 16.5079 27.0007C16.6278 27.0246 16.7677 27.0327 16.8896 27.0433C17.0636 27.0584 17.244 27.0449 17.4188 27.0449C17.6325 27.0449 17.8168 26.9564 18.0249 26.9564" stroke="black" stroke-width="0.5" stroke-linecap="round"/>
<path d="M16.2454 24.2756C16.181 24.2177 16.0434 24.1853 15.9626 24.1592C15.8352 24.118 15.7247 24.0551 15.6168 23.9798C15.4172 23.8404 15.3334 23.6388 15.3334 23.3999C15.3334 23.2535 15.3282 23.1059 15.3334 22.9596C15.3369 22.8607 15.4241 22.7122 15.4758 22.6309C15.5372 22.5345 15.5966 22.4421 15.6689 22.3529C15.787 22.2072 15.9543 22.1957 16.1167 22.1372C16.2743 22.0805 16.4627 22.0571 16.6302 22.0571C16.8253 22.0571 16.9999 22.075 17.1821 22.1496C17.3555 22.2205 17.4785 22.3653 17.595 22.5077C17.683 22.6153 17.7536 22.7278 17.8107 22.8528C17.8705 22.9836 17.8723 23.1179 17.8723 23.2595C17.8723 23.42 17.8293 23.6361 17.7491 23.773C17.71 23.8397 17.688 23.9145 17.6436 23.9791C17.5976 24.0461 17.5228 24.1028 17.4594 24.1524C17.3258 24.2569 17.2132 24.4077 17.0369 24.4454C16.894 24.476 16.6963 24.4798 16.5535 24.4543C16.4035 24.4275 16.2406 24.4219 16.0975 24.3742" stroke="black" stroke-width="0.5" stroke-linecap="round"/>
</svg>
